<?xml version="1.0" standalone="no"?> <!DOCTYPE svg PUBLIC "-//W3C//DTD SVG 1.0//EN" "http://www.w3.org/TR/2001/REC-SVG-20010904/DTD/svg10.dtd" > <svg xmlns="http://www.w3.org/2000/svg" width="100%" height="100%">
<defs >
<font id="brandongrotesque-bold" horiz-adv-x="391" ><font-face
    font-family="BrandonGrotesque"
    units-per-em="1000"
    panose-1="2 11 8 3 2 2 3 6 2 2"
    ascent="1049"
    descent="-380"
    alphabetic="0" />
<missing-glyph horiz-adv-x="599" d="M245 156Q245 136 259 122T293 108Q313 108 327 122T342 156Q342 176 328 190T293 204Q273 204 259 190T245 156ZM262 314Q262 309 266 306T276 302H312Q327 302 327 315V341Q327 359 343 372T379 401T415 437T432 491Q432
515 423 535T396 571T357 594T307 602Q275 602 251 593T209 572Q190 559 177 541Q174 536 173 532T177 523L199 501Q208 495 216 501Q221 506 228 512T245 526T268 537T300 542Q330 542 345 526T361 490Q361 466 346 451T312 421T278 389T262 343V314ZM50 670Q50
700 80 700H519Q549 700 549 670V30Q549 0 519 0H80Q50 0 50 30V670Z" />
<glyph unicode=" " glyph-name="space" horiz-adv-x="221" />
<glyph unicode="!" glyph-name="exclam" horiz-adv-x="310" d="M73 72Q73 106 97 130T154 155Q189 155 213 131T237 72Q237 38 213 14T154 -10Q121 -10 97 14T73 72ZM139 272Q132 272 127 277T120 288L81 567V681Q81 689 86 694T100 700H210Q218 700 223 695T229
681V569L190 288Q189 282 184 277T171 272H139Z" />
<glyph unicode="&quot;" glyph-name="quotedbl" horiz-adv-x="343" d="M55 501Q47 501 42 506T36 520V681Q36 689 41 694T55 700H135Q145 700 150 693T153 675L112 516Q110 510 105 506T94 501H55ZM226 501Q218 501 213 506T207 520V681Q207 689 212 694T226 700H306Q316
700 321 693T324 675L283 516Q281 510 276 506T265 501H226Z" />
<glyph unicode="#" glyph-name="numbersign" horiz-adv-x="538" d="M344 240L366 404H208L185 240H344ZM127 188H56Q48 188 43 193T37 207V221Q37 240 56 240H134L157 404H85Q77 404 72 409T66 423V437Q66 445 71 450T85 456H164L196 684Q197 690 202 695T214
700H228Q236 700 242 694T246 678L216 456H374L407 684Q408 690 413 695T426 700H438Q447 700 453 694T457 678L425 456H489Q497 456 502 451T508 437V423Q508 415 503 410T489 404H418L395 240H460Q468 240 473 235T479 221V207Q479 199 474 194T460 188H387L365
16Q363 0 346 0H333Q324 0 319 6T314 22L336 188H177L154 16Q153 9 148 5T135 0H123Q113 0 108 6T104 22L127 188Z" />
<glyph unicode="$" glyph-name="dollar" horiz-adv-x="525" d="M289 99Q321 104 342 124T364 174Q364 231 289 274V99ZM235 598Q197 593 179 575T160 533Q160 503 178 480T235 437V598ZM46 68Q39 75 36 81T41 98Q48 110 56 125T73 152T92 169T112 167Q114 166
125 158T153 141T192 121T236 105Q236 154 236 201T237 297Q202 311 167 329T103 372T56 434T38 519Q38 555 50 587T86 645T149 688T238 709V741Q238 749 243 754T257 760H270Q278 760 283 755T289 741V708Q322 705 351 697T402 678T440 658T463 643Q471 638 472
628T469 610Q462 599 453 585T435 559T416 541T397 541Q394 542 384 548T359 563T326 580T289 595V415Q322 402 358 383T424 337T475 274T495 188Q495 106 442 52T287 -9V-113Q287 -121 281 -126T267 -131Q258 -131 247 -129T236 -113V-9Q196 -6 164 4T107 26T68
50T46 68Z" />
<glyph unicode="%" glyph-name="percent" horiz-adv-x="662" d="M437 125Q437 105 451 91T486 76Q506 76 520 90T535 125Q535 145 521 159T486 173Q466 173 452 159T437 125ZM351 125Q351 153 361 177T390 220T433 249T486 260Q514 260 539 250T582 221T611 178T622
125Q622 97 612 73T583 30T539 1T486 -10Q458 -10 434 0T391 29T362 72T351 125ZM157 526Q177 526 191 540T205 575Q205 595 191 609T157 623Q137 623 123 609T108 575Q108 555 122 541T157 526ZM447 690Q452 700 464 700H514Q525 700 530 692T531 673L186 10Q184
7 180 4T169 0H121Q110 0 105 8T104 27L447 690ZM157 440Q129 440 105 450T62 479T33 522T22 575Q22 603 32 627T61 670T104 699T157 710Q185 710 209 700T252 671T281 628T292 575Q292 547 282 523T253 480T210 451T157 440Z" />
<glyph unicode="&amp;" glyph-name="ampersand" horiz-adv-x="689" d="M193 191Q193 149 223 123T298 97Q326 97 347 104T385 120T411 140T427 156L278 314Q272 310 258 302T230 279T204 243T193 191ZM308 436Q314 439 328 447T356 469T382 500T393 541Q393 570
370 593T308 616Q273 616 254 596T234 548Q233 522 248 502T286 458L308 436ZM74 178Q74 228 93 264T136 324T182 361T212 379V381L191 404Q161 436 142 469T123 548Q123 577 135 605T170 657T229 695T312 710Q354 710 389 697T448 662T487 611T501 547Q501 508
485 478T448 424T407 387T379 365L494 249Q506 273 515 302T530 360Q533 376 539 383T563 385L618 369Q628 366 632 361T637 351T637 340T635 330Q622 276 603 233T573 171L662 87Q671 78 674 68T660 41L619 -1Q610 -9 599 -9T575 2L503 75Q496 67 480 53T436 25T372
1T285 -10Q237 -10 199 5T132 45T89 105T74 178Z" />
<glyph unicode="&apos;" glyph-name="quotesingle" horiz-adv-x="172" d="M55 501Q47 501 42 506T36 520V681Q36 689 41 694T55 700H135Q145 700 150 693T153 675L112 516Q110 510 105 506T94 501H55Z" />
<glyph unicode="(" glyph-name="parenleft" horiz-adv-x="342" d="M291 -79Q248 -76 204 -58T124 3T66 122T43 315Q43 433 65 508T124 627T204 689T291 709Q299 710 304 706T310 694L313 628Q314 622 310 617T301 610Q227 590 197 515T166 315Q166 189 196 115T301
21Q308 19 311 14T313 2L310 -63Q308 -79 291 -79Z" />
<glyph unicode=")" glyph-name="parenright" horiz-adv-x="343" d="M29 2Q28 8 31 13T41 21Q115 41 145 115T176 315Q176 440 146 515T41 610Q36 611 32 616T29 628L32 694Q32 701 37 705T51 709Q94 707 138 689T218 628T276 509T299 315Q299 197 277 122T218
4T138 -58T51 -79Q34 -79 32 -63L29 2Z" />
<glyph unicode="*" glyph-name="asterisk" horiz-adv-x="350" d="M159 370Q151 370 146 375T140 389L142 476L70 426Q64 421 56 423T44 431L27 458Q22 465 23 472T32 485L115 535L32 585Q25 590 24 597T26 612Q32 620 36 626T45 639Q49 644 56 646T70 643L142
593L140 681Q140 689 145 694T159 700H191Q199 700 204 695T210 681L208 593L280 644Q286 648 294 647T306 639L323 612Q328 605 327 598T318 585L235 535L318 484Q326 479 327 472T324 458L305 431Q301 424 294 423T280 425L208 475L210 389Q210 381 205 376T191
370H159Z" />
<glyph unicode="+" glyph-name="plus" horiz-adv-x="560" d="M233 299H83Q75 299 70 304T64 318V374Q64 382 69 387T83 393H233V544Q233 552 238 557T252 562H308Q316 562 321 557T327 544V393H478Q486 393 491 388T496 374V318Q496 310 491 305T478 299H327V150Q327
142 322 137T308 132H252Q244 132 239 137T233 150V299Z" />
<glyph unicode="," glyph-name="comma" horiz-adv-x="259" d="M36 71Q36 105 61 129T124 154Q140 154 158 148T191 126T215 85T225 23Q225 -23 213 -59T182 -122T145 -166T111 -193Q104 -198 99 -198T86 -191L71 -175Q59 -161 75 -148Q79 -144 92 -133T119 -103T144
-59T155 -2Q154 -2 144 -6T117 -10Q84 -10 60 14T36 71Z" />
<glyph unicode="-" glyph-name="hyphen" horiz-adv-x="369" d="M73 192Q65 192 60 197T54 210V277Q54 296 73 296H296Q315 296 315 277V210Q315 202 310 197T296 192H73Z" />
<glyph unicode="." glyph-name="period" horiz-adv-x="235" d="M35 72Q35 106 59 130T117 155Q151 155 175 131T200 72Q200 38 176 14T117 -10Q83 -10 59 14T35 72Z" />
<glyph unicode="/" glyph-name="slash" horiz-adv-x="353" d="M225 687Q229 700 243 700H315Q326 700 331 693T333 675L138 13Q136 8 131 4T120 0H47Q37 0 32 7T29 25L225 687Z" />
<glyph unicode="0" glyph-name="zero" horiz-adv-x="626" d="M313 108Q371 108 402 168T434 340Q434 452 403 512T313 572Q255 572 224 512T192 340Q192 228 223 168T313 108ZM313 -10Q253 -10 206 14T127 83T78 193T61 340Q61 422 78 487T127 597T206 666T313
690Q373 690 420 666T499 597T548 487T565 340Q565 258 548 193T499 83T420 14T313 -10Z" />
<glyph unicode="1" glyph-name="one" horiz-adv-x="357" d="M141 498L53 479Q46 477 40 481T33 492L27 541Q26 553 32 559L176 680H246Q254 680 259 675T264 661V19Q264 11 259 6T246 0H160Q152 0 147 5T141 19V498Z" />
<glyph unicode="2" glyph-name="two" horiz-adv-x="518" d="M31 42Q56 72 90 115T160 205T230 297T290 375Q313 404 327 432T341 486Q341 503 335 519T315 548T282 569T235 577Q217 577 201 572T170 557T144 538T123 518Q110 505 96 518L48 566Q43 571 43 578T47
592Q71 619 101 641Q127 660 163 675T244 690Q298 690 339 674T409 631T452 568T467 491Q467 467 462 447T448 407T427 369T400 329Q384 306 363 278T318 221T272 162T228 107H444Q452 107 457 102T463 88V19Q463 11 458 6T444 0H50Q42 0 37 5T31 19V42Z" />
<glyph unicode="3" glyph-name="three" horiz-adv-x="522" d="M36 79Q31 84 31 91T37 104L88 153Q102 165 114 153Q115 152 126 143T154 125T192 107T237 99Q257 99 276 106T310 125T334 155T343 193Q343 232 308 262T205 292H149Q130 292 130 312V375Q130 395
149 395H205Q267 395 298 422T329 487Q329 508 321 525T300 554T269 572T232 579Q193 579 169 563T131 531Q119 517 104 530L55 576Q49 581 49 589T55 602Q78 627 107 646Q132 663 166 676T243 690Q287 690 325 677T393 641T439 583T456 507Q456 478 446 453T421
408T388 374T353 351V348Q371 341 392 327T431 293T461 245T474 185Q474 143 458 107T411 45T339 5T244 -10Q197 -10 162 0T102 25T60 54T36 79Z" />
<glyph unicode="4" glyph-name="four" horiz-adv-x="597" d="M348 249V489L148 249H348ZM35 145Q27 145 22 150T16 164V247L376 685Q382 691 391 691H445Q453 691 458 686T464 672V246H544Q552 246 557 241T563 228V166Q563 158 558 153T544 147H464L465 19Q465
11 460 6T446 0H363Q355 0 350 5T344 19V145H35Z" />
<glyph unicode="5" glyph-name="five" horiz-adv-x="528" d="M57 73Q47 84 47 91T55 107L105 156Q110 161 116 161T129 157Q131 156 141 147T169 128T210 109T258 101Q284 101 305 110T341 136T365 174T374 219Q374 266 344 298T253 331H99Q84 331 76 342T68 366V661Q68
669 73 674T87 680H403Q411 680 416 675T422 661V593Q422 585 417 580T403 574H181V441H267Q320 441 362 425T434 379T480 309T496 219Q496 172 478 131T427 58T350 8T254 -10Q214 -10 182 -1T125 20T83 47T57 73Z" />
<glyph unicode="6" glyph-name="six" horiz-adv-x="539" d="M280 104Q304 104 324 113T360 139T385 176T394 221Q394 245 385 266T361 303T324 328T279 338Q254 338 235 330T201 308T177 280T163 251Q163 226 170 200T191 152T227 118T280 104ZM43 266Q43 339
61 397T110 502T177 583T251 641T321 680T376 702Q398 708 404 688L427 629Q431 620 427 613T409 600Q391 594 359 579T293 540T230 482T189 408Q195 412 207 416T234 425T267 433T303 436Q341 436 377 422T442 381T489 314T507 219Q507 172 489 130T440 57T368
8T281 -10Q222 -10 178 12T103 71T58 159T43 266Z" />
<glyph unicode="7" glyph-name="seven" horiz-adv-x="484" d="M53 30L313 572H49Q41 572 36 577T30 591V661Q30 669 35 674T49 680H465Q473 680 478 675T484 661V654L186 27Q181 15 173 8T152 0H78Q69 0 61 3T53 19V30Z" />
<glyph unicode="8" glyph-name="eight" horiz-adv-x="567" d="M180 184Q180 163 188 146T211 117T245 99T284 92Q305 92 323 98T356 117T379 146T388 184Q388 218 362 248T284 290Q233 279 207 249T180 184ZM284 407Q331 418 353 444T375 502Q375 538 348 562T282
587Q246 587 220 563T193 502Q193 468 214 443T284 407ZM47 182Q47 215 62 243T97 293T137 329T168 349V352Q153 360 135 374T102 408T76 453T65 507Q65 549 82 582T128 640T197 677T282 690Q329 690 369 677T439 640T486 583T503 507Q503 479 493 455T467 411T433
377T400 353V349Q417 340 438 325T477 289T508 241T521 182Q521 141 505 106T457 45T382 5T282 -10Q228 -10 185 4T111 45T64 106T47 182Z" />
<glyph unicode="9" glyph-name="nine" horiz-adv-x="539" d="M260 348Q285 348 304 356T338 378T362 406T376 435Q376 461 369 487T348 534T312 568T259 582Q235 582 215 573T179 547T154 510T145 465Q145 441 154 420T178 383T215 358T260 348ZM112 57Q108 66
112 73T130 86Q148 92 180 107T246 146T309 204T350 278Q344 274 332 270T305 261T272 253T236 250Q199 250 162 264T97 305T50 372T32 467Q32 514 50 556T99 629T171 678T258 696Q317 696 361 674T436 615T481 527T496 420Q496 347 478 289T429 184T362 103T288
45T218 6T163 -16Q141 -22 135 -2L112 57Z" />
<glyph unicode=":" glyph-name="colon" horiz-adv-x="268" d="M62 62Q62 92 83 113T134 134Q164 134 185 113T206 62Q206 32 185 11T134 -10Q104 -10 83 11T62 62ZM134 266Q104 266 83 287T62 338Q62 368 83 389T134 410Q164 410 185 389T206 338Q206 308 185
287T134 266Z" />
<glyph unicode=";" glyph-name="semicolon" horiz-adv-x="247" d="M51 57Q51 84 71 104T122 124Q136 124 150 119T177 101T197 68T205 16Q205 -20 195 -50T170 -102T140 -140T115 -165Q109 -170 104 -170T92 -164L78 -149Q73 -144 74 -138T80 -127Q84 -124 95
-115T118 -90T139 -53T148 -5Q147 -5 139 -7T118 -10Q90 -10 71 9T51 57ZM119 266Q89 266 68 287T47 338Q47 368 68 389T119 410Q149 410 170 389T191 338Q191 308 170 287T119 266Z" />
<glyph unicode="&lt;" glyph-name="less" horiz-adv-x="436" d="M29 210Q25 212 22 217T19 227V232Q19 237 22 242T29 249L376 461Q386 467 395 462T404 445V375Q404 368 401 365T395 359L180 231L395 107Q398 105 401 102T404 91V21Q404 9 395 4T376 5L29 210Z" />
<glyph unicode="=" glyph-name="equal" horiz-adv-x="488" d="M81 127Q73 127 68 132T62 146V203Q62 211 67 216T81 222H407Q415 222 420 217T426 203V146Q426 138 421 133T407 127H81ZM81 338Q73 338 68 343T62 357V413Q62 421 67 426T81 432H407Q415 432 420
427T426 413V357Q426 349 421 344T407 338H81Z" />
<glyph unicode="&gt;" glyph-name="greater" horiz-adv-x="436" d="M32 91Q32 102 41 107L255 231L41 359Q32 364 32 375V445Q32 457 41 462T60 461L407 249Q411 247 414 242T417 232V227Q417 222 414 217T407 210L60 5Q50 -1 41 4T32 21V91Z" />
<glyph unicode="?" glyph-name="question" horiz-adv-x="449" d="M123 72Q123 106 147 130T205 155Q239 155 263 131T288 72Q288 38 264 14T205 -10Q171 -10 147 14T123 72ZM165 272Q157 272 152 277T146 291V333Q146 369 167 395T215 443T263 486T285 534Q285
561 264 581T205 601Q182 601 165 595T136 580T114 563T97 549Q85 541 75 550L28 596Q22 601 22 609T28 622Q49 647 78 666Q103 683 139 696T224 710Q263 710 298 698T360 663T402 610T418 542Q418 512 407 489T379 446T342 412T306 382T278 355T266 326V293Q266
284 261 278T246 272H165Z" />
<glyph unicode="@" glyph-name="at" horiz-adv-x="986" d="M383 208Q382 184 388 164T407 129T435 106T470 97Q494 97 510 106T536 131T550 165T555 206V243Q553 252 546 263T528 285T502 302T469 309Q433 309 409 281T383 208ZM32 223Q32 330 66 419T163 573T314
674T508 710Q612 710 693 678T830 590T915 456T944 288Q944 239 932 186T894 90T824 18T717 -10Q665 -10 638 13T598 68H590Q574 36 541 13T460 -10Q421 -10 388 7T330 52T293 119T279 201Q279 246 292 284T330 350T389 394T463 410Q487 410 506 403T541 387T567
367T584 351Q589 363 591 372T598 388T609 397T631 400H648Q656 400 661 395T667 381V198Q667 164 672 144T685 112T705 96T729 92Q753 92 772 107T805 149T825 210T832 283Q832 352 812 411T750 513T648 582T504 607Q421 607 354 581T240 504T167 383T141 223Q141
162 159 108T209 8T285 -72T382 -129Q399 -137 393 -153L369 -216Q362 -233 347 -227Q279 -202 222 -159T122 -56T56 73T32 223Z" />
<glyph unicode="A" glyph-name="A" horiz-adv-x="663" d="M432 239L332 459H329L231 239H432ZM17 0Q6 0 1 8T0 26L311 699Q317 710 328 710H338Q346 710 349 707T355 699L663 26Q668 16 663 8T646 0H559Q548 0 542 4T530 20L481 128H182L133 20Q130 12 123 6T104 0H17Z" />
<glyph unicode="B" glyph-name="B" horiz-adv-x="617" d="M341 118Q379 118 405 144T431 209Q431 228 423 244T400 271T367 289T329 296H220V118H341ZM327 406Q365 406 389 432T413 496Q413 534 389 557T327 581H220V406H327ZM91 681Q91 689 96 694T110 700H339Q384
700 422 686T489 647T534 588T550 515Q550 486 540 461T513 415T477 379T440 356Q460 350 482 337T524 303T557 255T570 193Q570 151 553 116T507 55T438 15T352 0H110Q102 0 97 5T91 19V681Z" />
<glyph unicode="C" glyph-name="C" horiz-adv-x="684" d="M40 349Q40 424 68 490T145 604T260 681T401 710Q477 710 534 687T643 617Q658 603 644 589L583 526Q571 513 558 526Q526 554 486 569T404 585Q356 585 315 567T245 516T198 442T181 352Q181 305 198
263T245 190T316 140T405 121Q450 121 488 136T558 178Q564 183 571 183T583 178L645 114Q651 109 650 101T644 87Q593 37 531 14T401 -10Q326 -10 260 18T146 94T69 208T40 349Z" />
<glyph unicode="D" glyph-name="D" horiz-adv-x="738" d="M334 122Q383 122 424 139T495 187T542 260T559 351Q559 400 542 441T495 513T424 561T334 579H220V122H334ZM91 681Q91 689 96 694T109 700H346Q418 700 482 673T594 598T669 487T697 351Q697 278 670
214T594 103T482 28T346 0H109Q101 0 96 5T91 19V681Z" />
<glyph unicode="E" glyph-name="E" horiz-adv-x="588" d="M91 681Q91 689 96 694T110 700H517Q525 700 530 695T536 681V599Q536 591 531 586T517 580H221V416H468Q476 416 481 411T487 397V314Q487 306 482 301T468 295H221V120H517Q525 120 530 115T536 101V19Q536
11 531 6T517 0H110Q102 0 97 5T91 19V681Z" />
<glyph unicode="F" glyph-name="F" horiz-adv-x="564" d="M91 681Q91 689 96 694T110 700H517Q525 700 530 695T536 681V599Q536 591 531 586T517 580H221V392H468Q476 392 481 387T487 373V291Q487 283 482 278T468 272H221V19Q221 11 216 6T202 0H110Q102 0
97 5T91 19V681Z" />
<glyph unicode="G" glyph-name="G" horiz-adv-x="712" d="M41 349Q41 424 69 490T146 604T260 681T400 710Q468 710 530 686T644 617Q650 611 650 603T645 589L583 524Q571 512 557 524Q491 582 406 582Q359 582 318 564T247 513T200 439T182 350Q182 304 199
262T247 189T319 140T407 121Q449 121 480 130T526 146V231H446Q438 231 433 236T427 249V328Q427 347 446 347H638Q646 347 651 342T656 328V72Q656 62 648 56Q617 38 578 24Q545 12 500 2T400 -9Q325 -9 260 19T146 95T69 208T41 349Z" />
<glyph unicode="H" glyph-name="H" horiz-adv-x="769" d="M91 681Q91 689 96 694T110 700H203Q211 700 216 695T222 681V416H548V681Q548 689 553 694T567 700H659Q667 700 672 695T678 681V19Q678 11 673 6T659 0H567Q559 0 554 5T548 19V295H222V19Q222 11 217
6T203 0H110Q102 0 97 5T91 19V681Z" />
<glyph unicode="I" glyph-name="I" horiz-adv-x="313" d="M91 681Q91 689 96 694T110 700H203Q211 700 216 695T222 681V19Q222 11 217 6T203 0H110Q102 0 97 5T91 19V681Z" />
<glyph unicode="J" glyph-name="J" horiz-adv-x="418" d="M-16 63Q-24 76 -14 88L38 141Q53 155 68 140Q78 129 93 119T134 108Q149 108 163 114T188 132T207 164T214 209V681Q214 689 219 694T233 700H327Q335 700 340 695T346 681V209Q346 157 330 116T285 47T218
5T136 -10Q103 -10 78 -2T34 18T3 42T-16 63Z" />
<glyph unicode="K" glyph-name="K" horiz-adv-x="655" d="M91 676Q91 686 97 693T115 700H203Q213 700 220 693T227 676V406L479 690Q482 694 486 697T498 700H598Q612 700 618 688T614 664L353 370L633 35Q641 25 636 13T615 0H506Q498 0 494 2T488 7L227 329V24Q227
14 220 7T203 0H115Q104 0 98 7T91 24V676Z" />
<glyph unicode="L" glyph-name="L" horiz-adv-x="505" d="M91 681Q91 689 96 694T110 700H202Q210 700 215 695T221 681V120H476Q484 120 489 115T495 101V19Q495 11 490 6T476 0H110Q102 0 97 5T91 19V681Z" />
<glyph unicode="M" glyph-name="M" horiz-adv-x="873" d="M164 695Q165 701 169 705T182 710H198Q210 710 215 700L435 228H438L658 700Q663 710 675 710H691Q699 710 703 706T709 695L827 23Q829 12 824 6T809 0H718Q711 0 706 5T699 15L640 394H637L462 1Q458
-10 445 -10H427Q416 -10 410 1L233 394H230L172 15Q171 10 166 5T154 0H64Q42 0 45 23L164 695Z" />
<glyph unicode="N" glyph-name="N" horiz-adv-x="773" d="M91 692Q91 700 96 705T110 710H135L551 268H552V681Q552 689 557 694T571 700H663Q671 700 676 695T682 681V8Q682 0 677 -5T663 -10H639L221 449H220V19Q220 11 215 6T201 0H110Q102 0 97 5T91 19V692Z" />
<glyph unicode="O" glyph-name="O" horiz-adv-x="800" d="M171 349Q171 302 189 260T238 187T311 138T400 120Q447 120 489 138T562 187T612 260T630 349Q630 396 612 438T563 511T489 561T400 580Q353 580 311 562T238 512T189 438T171 349ZM41 349Q41 424 69
490T145 604T259 681T400 710Q475 710 540 682T655 605T732 490T760 349Q760 274 732 209T655 95T541 18T400 -10Q325 -10 260 18T146 94T69 208T41 349Z" />
<glyph unicode="P" glyph-name="P" horiz-adv-x="592" d="M337 376Q358 376 376 384T409 406T432 439T440 480Q440 501 432 518T410 549T377 569T337 577H221V376H337ZM91 681Q91 689 96 694T110 700H345Q391 700 432 683T503 635T551 565T569 479Q569 433 552
392T504 320T433 272T346 254H221V19Q221 11 216 6T202 0H110Q102 0 97 5T91 19V681Z" />
<glyph unicode="Q" glyph-name="Q" horiz-adv-x="801" d="M171 349Q171 302 189 260T238 187T311 138T400 120Q447 120 489 138T562 187T612 260T630 349Q630 396 612 438T563 511T489 561T400 580Q353 580 311 562T238 512T189 438T171 349ZM41 349Q41 424 69
490T145 604T259 681T400 710Q475 710 540 682T655 605T732 490T760 349Q760 298 746 251T706 162T645 87T565 29L690 -168Q697 -179 692 -188T674 -198H568Q565 -198 560 -196T552 -188L445 -7Q433 -9 421 -9T400 -10Q325 -10 260 18T146 94T69 208T41 349Z" />
<glyph unicode="R" glyph-name="R" horiz-adv-x="666" d="M385 381Q405 381 423 389T454 411T476 443T484 483Q484 503 476 520T455 551T423 572T385 580H222V381H385ZM91 681Q91 689 96 694T110 700H396Q441 700 480 683T550 637T597 569T614 485Q614 451 603
420T573 363T526 317T466 283L603 29Q608 19 604 10T586 0H481Q474 0 471 3T465 9L332 274H221V19Q221 11 216 6T202 0H110Q102 0 97 5T91 19V681Z" />
<glyph unicode="S" glyph-name="S" horiz-adv-x="542" d="M55 68Q48 75 46 80T50 98L86 160Q92 171 102 171T120 167Q122 166 136 156T173 135T221 115T271 105Q310 105 336 127T362 182Q362 220 330 248T235 302Q200 316 166 335T106 380T63 440T47 518Q47 551
60 585T100 647T169 692T272 710Q310 710 343 702T403 682T447 660T472 643Q480 638 481 628T478 610L440 553Q434 544 424 540T405 541Q402 543 388 552T353 570T310 588T266 596Q223 596 201 573T178 526Q178 491 206 465T296 414Q332 399 369 380T437 335T486
272T505 188Q505 149 489 114T443 51T371 7T275 -10Q228 -10 191 -1T126 22T81 48T55 68Z" />
<glyph unicode="T" glyph-name="T" horiz-adv-x="501" d="M185 580H32Q24 580 19 585T13 599V681Q13 689 18 694T32 700H469Q477 700 482 695T488 681V599Q488 591 483 586T469 580H316V19Q316 11 311 6T297 0H204Q196 0 191 5T185 19V580Z" />
<glyph unicode="U" glyph-name="U" horiz-adv-x="719" d="M81 681Q81 689 86 694T100 700H195Q203 700 208 695T214 681V272Q214 240 224 213T254 165T299 132T359 120Q392 120 418 132T464 164T494 212T505 271V681Q505 689 510 694T524 700H619Q627 700 632
695T638 681V265Q638 208 617 158T558 71T469 12T359 -10Q300 -10 250 11T162 70T103 158T81 265V681Z" />
<glyph unicode="V" glyph-name="V" horiz-adv-x="663" d="M0 674Q-5 684 0 692T17 700H119Q126 700 130 697T136 689L328 259H335L527 689Q529 693 533 696T544 700H646Q657 700 662 692T663 674L353 1Q348 -10 336 -10H326Q315 -10 309 1L0 674Z" />
<glyph unicode="W" glyph-name="W" horiz-adv-x="899" d="M29 676Q26 687 31 693T47 700H139Q145 700 150 696T157 686L261 287H265L424 699Q428 710 441 710H459Q472 710 476 699L636 287H640L742 686Q744 691 749 695T760 700H852Q863 700 868 694T870 676L681
4Q679 -2 674 -6T663 -10H647Q634 -10 630 1L451 454H446L269 1Q267 -4 264 -7T252 -10H236Q222 -10 218 4L29 676Z" />
<glyph unicode="X" glyph-name="X" horiz-adv-x="632" d="M238 359L38 672Q32 682 37 691T55 700H171Q177 700 181 697T187 691L315 479H316L446 691Q448 694 452 697T462 700H578Q591 700 596 691T595 672L394 359L602 28Q608 17 603 9T585 0H477Q471 0 467 3T460
9L317 238H314L173 9Q171 6 167 3T156 0H48Q34 0 29 9T30 28L238 359Z" />
<glyph unicode="Y" glyph-name="Y" horiz-adv-x="583" d="M225 337L-3 671Q-9 681 -4 690T13 700H115Q121 700 125 697T131 691L291 461L451 691Q453 694 457 697T467 700H570Q582 700 587 691T586 671L355 338V19Q355 11 350 6T336 0H244Q236 0 231 5T225 19V337Z" />
<glyph unicode="Z" glyph-name="Z" horiz-adv-x="538" d="M25 37L323 575V579H73Q65 579 60 584T54 598V681Q54 689 59 694T73 700H491Q499 700 504 695T510 681V668L216 123V121H471Q479 121 484 116T490 102V19Q490 11 485 6T471 0H44Q36 0 31 5T25 19V37Z" />
<glyph unicode="[" glyph-name="bracketleft" horiz-adv-x="349" d="M311 -200Q319 -200 324 -205T330 -218V-281Q330 -289 325 -294T311 -300H85Q77 -300 72 -295T66 -281V681Q66 689 71 694T85 700H311Q319 700 324 695T330 681V619Q330 611 325 606T311 600H181V-200H311Z"
/>
<glyph unicode="\" glyph-name="backslash" horiz-adv-x="357" d="M20 675Q17 686 22 693T38 700H114Q128 700 132 687L328 25Q331 14 326 7T310 0H233Q228 0 223 4T215 13L20 675Z" />
<glyph unicode="]" glyph-name="bracketright" horiz-adv-x="349" d="M168 -200V600H38Q30 600 25 605T19 619V681Q19 689 24 694T38 700H264Q272 700 277 695T283 681V-281Q283 -289 278 -294T264 -300H38Q30 -300 25 -295T19 -281V-218Q19 -210 24 -205T38 -200H168Z" />
<glyph unicode="^" glyph-name="asciicircum" horiz-adv-x="524" d="M53 385Q41 385 36 394T37 413L245 704Q247 708 251 711T262 714H267Q273 714 277 711T284 704L487 413Q493 403 488 394T471 385H402Q397 385 393 388T386 394L263 563L138 394Q136 391 132
388T122 385H53Z" />
<glyph unicode="_" glyph-name="underscore" horiz-adv-x="415" d="M19 -29Q19 -10 38 -10H377Q396 -10 396 -29V-68Q396 -76 391 -81T377 -86H38Q30 -86 25 -81T19 -68V-29Z" />
<glyph unicode="`" glyph-name="grave" horiz-adv-x="302" d="M59 605Q53 608 51 615T53 632L81 683Q85 690 92 690T107 686L271 589Q276 587 278 582T277 570L259 534Q253 520 234 528L59 605Z" />
<glyph unicode="a" glyph-name="a" horiz-adv-x="427" d="M141 127Q141 104 155 90T193 75Q205 75 216 79T237 90T253 103T262 114V169Q254 172 245 175Q237 177 227 179T206 181Q177 181 159 166T141 127ZM31 127Q31 181 72 217T191 253Q221 253 243 248Q254
245 264 242Q265 280 253 295T212 311Q198 311 182 310T151 306T122 302T100 296Q89 293 84 298T77 314L68 366Q66 377 70 383T82 391Q85 392 97 395T129 401T171 407T218 410Q265 410 295 398T342 364T365 309T372 236V19Q372 11 367 6T353 0H317Q312 0 308 3T300
14L288 41Q279 33 268 24T242 8T208 -5T166 -10Q106 -10 69 26T31 127Z" />
<glyph unicode="b" glyph-name="b" horiz-adv-x="500" d="M179 163Q182 154 188 143T204 122T228 105T263 98Q303 98 328 128T354 200Q354 242 327 272T257 302Q238 302 224 299T199 291Q188 286 179 279V163ZM60 681Q60 689 65 694T79 700H164Q172 700 177 695T183
681V392Q197 397 219 403T272 410Q317 410 353 394T416 349T456 282T470 200Q470 157 456 119T415 52T354 7T278 -10Q246 -10 222 -1T181 20Q162 33 147 50L137 19Q132 0 118 0H79Q71 0 66 5T60 19V681Z" />
<glyph unicode="c" glyph-name="c" horiz-adv-x="426" d="M29 200Q29 244 46 282T93 349T161 394T242 410Q289 410 325 392T390 339Q395 332 394 324T385 311L339 267Q332 261 326 263T314 270Q302 284 284 293T245 302Q225 302 207 294T176 272T155 240T147 200Q147
157 175 128T244 98Q276 98 293 110T324 136Q336 148 349 139L392 102Q409 88 399 74Q373 34 334 12T241 -10Q199 -10 161 6T93 50T46 116T29 200Z" />
<glyph unicode="d" glyph-name="d" horiz-adv-x="500" d="M146 200Q146 158 171 128T237 98Q257 98 271 105T296 121T312 142T321 163V279Q312 286 301 291Q291 296 277 299T243 302Q201 302 174 272T146 200ZM30 200Q30 244 44 282T84 348T146 393T228 410Q258
410 280 404T317 392V681Q317 689 322 694T336 700H421Q429 700 434 695T440 681V19Q440 11 435 6T421 0H382Q368 0 363 19L353 50Q338 33 319 20Q302 9 278 0T222 -10Q181 -10 146 6T85 51T45 118T30 200Z" />
<glyph unicode="e" glyph-name="e" horiz-adv-x="445" d="M304 250Q302 278 281 298T231 318Q201 318 179 299T153 250H304ZM30 200Q30 242 45 280T87 347T151 393T234 410Q273 410 307 396T366 358T406 299T421 224Q421 219 421 211T419 197Q418 189 413 185T400
180H144Q145 165 152 150T171 122T201 101T240 93Q263 93 283 100T318 118Q335 128 344 118L385 71Q390 66 391 59T384 45Q359 22 322 6T235 -10Q190 -10 153 6T88 51T45 118T30 200Z" />
<glyph unicode="f" glyph-name="f" horiz-adv-x="344" d="M84 295H50Q42 295 37 300T31 314V381Q31 400 50 400H84V508Q84 558 98 595T138 658T197 697T271 710Q311 710 343 697T389 671Q394 667 395 660T393 648L359 584Q356 578 349 577T335 579Q325 585 309
592T276 599Q244 599 227 576T209 508V400H309Q328 400 328 381V314Q328 306 323 301T309 295H209V19Q209 11 204 6T190 0H103Q95 0 90 5T84 19V295Z" />
<glyph unicode="g" glyph-name="g" horiz-adv-x="462" d="M148 -151Q148 -177 171 -193T236 -210Q278 -210 303 -193T329 -147Q329 -140 326 -132T315 -116T292 -103T256 -98Q239 -98 223 -99T191 -102Q187 -104 180 -107T165 -116T153 -130T148 -151ZM170 231Q170
199 190 179T240 159Q271 159 290 179T309 231Q309 263 290 283T240 303Q210 303 190 283T170 231ZM18 30Q18 59 30 80T56 115Q73 131 93 142Q85 153 78 167Q72 179 68 196T63 236Q63 271 76 302T113 358T168 396T237 410H419Q438 410 438 391V358Q438 353 435
348T427 341L371 323Q382 314 391 299Q399 286 405 267T411 221Q411 191 399 163T365 113T311 78T240 64Q211 64 192 68T160 72Q149 72 136 62T123 34Q123 18 134 9T163 0H291Q325 0 355 -9T407 -37T443 -81T456 -140Q456 -175 442 -205T401 -259T332 -296T237
-310Q182 -310 143 -298T80 -266T44 -222T33 -173Q33 -151 41 -134T59 -106T79 -87T93 -78V-75Q87 -73 75 -67T50 -48T28 -17T18 30Z" />
<glyph unicode="h" glyph-name="h" horiz-adv-x="520" d="M60 681Q60 689 65 694T79 700H164Q172 700 177 695T183 681V377Q198 388 226 399T289 410Q337 410 370 393T426 349T458 285T468 211V19Q468 11 463 6T449 0H368Q360 0 355 5T349 19V212Q349 254 328
278T270 302Q235 302 213 282T183 231V19Q183 0 162 0H79Q71 0 66 5T60 19V681Z" />
<glyph unicode="i" glyph-name="i" horiz-adv-x="241" d="M60 381Q60 389 65 394T79 400H162Q170 400 175 395T181 381V19Q181 11 176 6T162 0H79Q71 0 66 5T60 19V381ZM119 542Q90 542 71 562T51 611Q51 640 70 660T119 680Q148 680 168 660T189 611Q189 582
169 562T119 542Z" />
<glyph unicode="j" glyph-name="j" horiz-adv-x="242" d="M60 381Q60 389 65 394T79 400H163Q171 400 176 395T182 381V-108Q182 -158 168 -195T129 -258T70 -297T-4 -310Q-44 -310 -76 -297T-122 -271Q-127 -267 -128 -260T-126 -248L-93 -184Q-90 -178 -83 -177T-69
-179Q-59 -185 -43 -192T-10 -199Q24 -199 42 -176T60 -108V381ZM120 542Q91 542 72 562T52 611Q52 640 71 660T120 680Q149 680 169 660T190 611Q190 582 170 562T120 542Z" />
<glyph unicode="k" glyph-name="k" horiz-adv-x="489" d="M60 681Q60 689 65 694T79 700H164Q172 700 177 695T183 681V248L321 388Q326 393 332 396T346 400H437Q450 400 454 390T450 371L301 219L479 28Q487 20 483 10T466 0H358Q347 0 341 8L183 188V19Q183
11 178 6T164 0H79Q71 0 66 5T60 19V681Z" />
<glyph unicode="l" glyph-name="l" horiz-adv-x="242" d="M60 681Q60 689 65 694T79 700H163Q171 700 176 695T182 681V19Q182 11 177 6T163 0H79Q71 0 66 5T60 19V681Z" />
<glyph unicode="m" glyph-name="m" horiz-adv-x="779" d="M60 381Q60 389 65 394T79 400H116Q129 400 133 389L147 351Q153 358 165 368T194 387T232 403T281 410Q324 410 355 394T411 348Q417 355 430 365T461 386T502 403T552 410Q600 410 633 394T687 350T717
286T727 210V19Q727 11 722 6T708 0H627Q619 0 614 5T608 19V217Q608 256 590 279T533 302Q511 302 496 296T469 281Q457 271 449 260Q450 254 450 248V222V19Q450 11 445 6T431 0H356Q348 0 343 5T337 19V217Q337 256 319 279T263 302Q244 302 230 296T206 281T190
260T179 239V19Q179 11 174 6T160 0H79Q71 0 66 5T60 19V381Z" />
<glyph unicode="n" glyph-name="n" horiz-adv-x="519" d="M60 381Q60 389 65 394T79 400H117Q129 400 134 388L148 351Q154 357 165 367T195 386T236 403T289 410Q337 410 370 394T425 350T457 286T467 211V19Q467 11 462 6T448 0H366Q358 0 353 5T347 19V217Q347
256 328 279T272 302Q253 302 237 296T209 281T190 260T178 239V19Q178 8 173 4T153 0H79Q71 0 66 5T60 19V381Z" />
<glyph unicode="o" glyph-name="o" horiz-adv-x="468" d="M138 201Q138 158 165 128T234 98Q254 98 271 106T302 128T322 161T330 201Q330 222 323 240T302 272T272 294T234 302Q214 302 197 294T166 273T146 241T138 201ZM29 201Q29 243 45 281T89 347T154 393T234
410Q276 410 313 393T379 348T423 281T439 201Q439 158 423 120T379 53T314 7T234 -10Q192 -10 155 7T89 52T45 119T29 201Z" />
<glyph unicode="p" glyph-name="p" horiz-adv-x="500" d="M178 121Q187 115 198 110Q208 105 222 102T256 98Q298 98 325 128T353 200Q353 242 328 272T260 302Q241 302 227 296T202 280T186 260T178 241V121ZM183 -281Q183 -290 178 -295T159 -300H79Q71 -300
66 -295T60 -281V381Q60 389 65 394T79 400H118Q131 400 135 388L148 355Q154 363 165 372T193 390T231 404T277 410Q318 410 353 394T415 349T455 282T470 200Q470 156 455 118T412 51T349 6T272 -10Q243 -10 219 -2T183 12V-281Z" />
<glyph unicode="q" glyph-name="q" horiz-adv-x="500" d="M147 198Q147 156 174 127T244 98Q263 98 277 101T302 110Q313 115 322 121V241Q320 249 314 259T298 279T274 295T240 302Q219 302 202 294T173 271T154 238T147 198ZM30 200Q30 243 44 281T85 348T146
393T223 410Q247 410 268 404T306 390T334 373T352 355L365 388Q370 400 382 400H421Q429 400 434 395T440 381V-281Q440 -289 435 -294T421 -300H341Q327 -300 322 -295T317 -281V12Q306 6 282 -2T228 -10Q188 -10 152 6T89 50T46 117T30 200Z" />
<glyph unicode="r" glyph-name="r" horiz-adv-x="341" d="M60 381Q60 389 65 394T79 400H117Q130 400 135 387L149 348Q154 356 163 366T187 386T220 403T262 410Q280 410 295 408T322 400T339 387T339 370L302 305Q298 298 292 296T279 296Q277 297 268 299T250
302Q220 302 202 287T179 261V19Q179 0 156 0H79Q71 0 66 5T60 19V381Z" />
<glyph unicode="s" glyph-name="s" horiz-adv-x="364" d="M44 27Q39 31 37 36T38 48L65 102Q68 110 74 111T88 109Q101 102 116 97Q129 92 145 89T179 85Q194 85 203 91T213 110Q213 124 200 134T146 160Q88 183 61 214T33 292Q33 315 41 336T68 373T114 400T180
410Q225 410 256 400T303 379Q310 374 313 367T312 352L287 301Q283 294 276 293T263 294Q250 301 236 305Q224 309 209 312T180 315Q162 315 154 309T146 292Q146 278 159 271T201 253Q230 242 254 230T297 201T325 163T336 112Q336 87 326 65T295 27T245 0T177
-10Q127 -10 94 2T44 27Z" />
<glyph unicode="t" glyph-name="t" horiz-adv-x="345" d="M81 295H47Q39 295 34 300T29 314V381Q29 389 34 394T47 400H81V511Q81 519 86 524T100 530L182 531Q190 531 195 526T200 512V400H288Q307 400 307 381V314Q307 306 302 301T288 295H200V135Q200 114
209 109T231 103Q244 103 258 107T280 114Q297 120 302 103L322 40Q325 32 322 26T311 16Q309 15 297 11T268 2T231 -6T192 -10Q134 -10 108 24T81 119V295Z" />
<glyph unicode="u" glyph-name="u" horiz-adv-x="503" d="M53 381Q53 389 58 394T72 400H154Q162 400 167 395T173 381V184Q173 144 192 121T246 98Q278 98 299 122T326 173V381Q326 392 331 396T348 400H424Q432 400 437 395T443 381V19Q443 11 438 6T424 0H387Q379
0 375 4T368 15L356 48Q349 42 339 32T312 13T274 -3T222 -10Q176 -10 144 6T91 50T62 113T53 187V381Z" />
<glyph unicode="v" glyph-name="v" horiz-adv-x="418" d="M7 376Q2 386 6 393T21 400H108Q121 400 126 389L207 203H209L295 389Q299 397 305 398T319 400H397Q408 400 412 393T411 376L228 0Q226 -4 222 -7T211 -10H206Q199 -10 195 -7T189 0L7 376Z" />
<glyph unicode="w" glyph-name="w" horiz-adv-x="616" d="M18 377Q13 387 18 393T35 400H107Q112 400 117 397T125 388L185 209H186L288 401Q290 404 293 407T304 410H312Q323 410 328 401L429 209H430L490 388Q493 396 499 398T513 400H578Q589 400 594 394T596
377L471 1Q467 -10 453 -10H449Q438 -10 433 -1L307 232H306L181 -1Q176 -10 165 -10H160Q147 -10 143 1L18 377Z" />
<glyph unicode="x" glyph-name="x" horiz-adv-x="451" d="M36 0Q23 0 20 9T24 29L154 204L28 371Q20 381 25 390T43 400H126Q136 400 144 398T159 386L224 292H225L291 386Q297 394 303 397T321 400H411Q424 400 427 391T423 371L297 205L424 29Q431 19 428 10T412
0H324Q307 0 296 16L225 116H224L148 8Q142 0 132 0H36Z" />
<glyph unicode="y" glyph-name="y" horiz-adv-x="463" d="M8 374Q3 384 8 392T25 400H115Q127 400 132 389L233 163H234L334 389Q338 397 343 398T358 400H438Q450 400 455 392T455 374L149 -288Q147 -293 143 -296T132 -300H46Q35 -300 30 -292T29 -273L171 28L8 374Z" />
<glyph unicode="z" glyph-name="z" horiz-adv-x="366" d="M30 29L172 291V293H58Q50 293 45 298T40 312V381Q40 389 45 394T58 400H322Q333 400 339 392T339 373L194 109V106H302Q321 106 321 87V19Q321 11 316 6T302 0H49Q41 0 36 5T30 19V29Z" />
<glyph unicode="{" glyph-name="braceleft" horiz-adv-x="394" d="M103 87Q103 104 96 116T78 136T55 149T34 155Q28 156 24 160T19 173V222Q19 230 23 233T33 239Q36 240 47 244T71 258T93 279T103 308V435Q103 518 127 570T188 653T268 696T351 710Q369 712
371 693L375 630Q376 622 371 618T361 612Q302 599 265 556T227 435V330Q227 298 216 274T189 234T161 210T144 200V196Q154 192 168 184T196 160T218 123T227 71V-36Q227 -113 264 -156T361 -211Q366 -213 371 -217T375 -230L371 -293Q370 -301 365 -306T351 -310Q312
-309 269 -297T189 -254T128 -172T103 -36V87Z" />
<glyph unicode="|" glyph-name="bar" horiz-adv-x="180" d="M65 741Q65 749 70 754T84 760H97Q105 760 110 755T115 741V-282Q115 -290 110 -295T96 -300H84Q76 -300 71 -295T65 -282V741Z" />
<glyph unicode="}" glyph-name="braceright" horiz-adv-x="394" d="M167 71Q167 101 176 123T198 160T225 183T250 196V200Q247 202 234 210T205 234T179 274T167 330V435Q167 512 130 555T33 612Q28 613 23 617T19 630L23 693Q25 712 43 710Q82 709 125 697T205
654T266 571T291 435V308Q291 292 300 280T322 258T346 245T361 239Q366 237 370 234T375 222V173Q375 165 371 161T360 155Q351 154 339 150T317 137T299 116T291 87V-36Q291 -119 267 -171T206 -254T126 -296T43 -310Q35 -311 30 -306T23 -293L19 -230Q18 -222
23 -218T33 -211Q92 -199 129 -156T167 -36V71Z" />
<glyph unicode="~" glyph-name="asciitilde" horiz-adv-x="533" d="M78 194Q66 206 56 216T33 238Q28 243 27 250T31 262Q52 290 77 312Q98 331 125 346T181 361Q213 361 237 348T282 320Q297 310 315 299T355 288Q381 288 400 306T429 340Q435 348 443 348T458
342L500 298Q505 293 506 286T502 274Q481 247 457 225Q437 206 411 191T355 176Q319 176 294 190T245 219Q231 229 216 238T180 247Q154 247 135 229T106 196Q101 188 93 188T78 194Z" />
</font>
</defs>
</svg>
