<?xml version="1.0" standalone="no"?> <!DOCTYPE svg PUBLIC "-//W3C//DTD SVG 1.0//EN" "http://www.w3.org/TR/2001/REC-SVG-20010904/DTD/svg10.dtd" > <svg xmlns="http://www.w3.org/2000/svg" width="100%" height="100%">
<defs >
<font id="brandongrotesque-black" horiz-adv-x="394" ><font-face
    font-family="BrandonGrotesque"
    units-per-em="1000"
    panose-1="2 11 10 3 2 2 3 6 2 2"
    ascent="1051"
    descent="-381"
    alphabetic="0" />
<missing-glyph horiz-adv-x="599" d="M245 156Q245 136 259 122T293 108Q313 108 327 122T342 156Q342 176 328 190T293 204Q273 204 259 190T245 156ZM262 314Q262 309 266 306T276 302H312Q327 302 327 315V341Q327 359 343 372T379 401T415 437T432 491Q432
515 423 535T396 571T357 594T307 602Q275 602 251 593T209 572Q190 559 177 541Q174 536 173 532T177 523L199 501Q208 495 216 501Q221 506 228 512T245 526T268 537T300 542Q330 542 345 526T361 490Q361 466 346 451T312 421T278 389T262 343V314ZM50 670Q50
700 80 700H519Q549 700 549 670V30Q549 0 519 0H80Q50 0 50 30V670Z" />
<glyph unicode=" " glyph-name="space" horiz-adv-x="221" />
<glyph unicode="!" glyph-name="exclam" horiz-adv-x="314" d="M62 84Q62 104 69 121T90 151T120 172T156 180Q176 180 193 173T223 152T244 121T252 84Q252 65 245 48T224 18T193 -2T156 -10Q137 -10 120 -3T90 18T70 48T62 84ZM136 272Q129 272 124 277T117
288L68 567V681Q68 689 73 694T87 700H227Q235 700 240 695T246 681V569L197 288Q196 282 191 277T178 272H136Z" />
<glyph unicode="&quot;" glyph-name="quotedbl" horiz-adv-x="366" d="M50 501Q42 501 37 506T31 520V681Q31 689 36 694T50 700H154Q164 700 169 693T172 675L124 516Q122 510 117 506T106 501H50ZM231 501Q223 501 218 506T212 520V681Q212 689 217 694T231
700H335Q345 700 350 693T353 675L305 516Q303 510 298 506T287 501H231Z" />
<glyph unicode="#" glyph-name="numbersign" horiz-adv-x="535" d="M347 240L369 401H209L185 240H347ZM123 185H52Q44 185 39 190T33 204V221Q33 240 52 240H130L154 401H81Q73 401 68 406T62 420V437Q62 445 67 450T81 456H161L193 684Q194 690 199 695T211
700H228Q236 700 242 694T246 678L216 456H377L408 684Q409 690 414 695T427 700H443Q452 700 458 694T462 678L432 456H492Q500 456 505 451T511 437V420Q511 412 506 407T492 401H424L401 240H463Q471 240 476 235T482 221V204Q482 196 477 191T463 185H393L370
16Q368 0 351 0H335Q326 0 321 6T316 22L339 185H177L155 16Q154 9 149 5T136 0H120Q110 0 105 6T101 22L123 185Z" />
<glyph unicode="$" glyph-name="dollar" horiz-adv-x="526" d="M290 115Q313 121 328 137T343 177Q343 225 290 261V115ZM230 585Q206 582 191 567T175 533Q175 511 187 492T230 455V585ZM40 67Q32 75 30 79T35 95L78 171Q85 183 95 187T116 184Q117 183 128 176T155
160T192 140T232 124L233 286Q200 299 165 319T99 367T50 430T30 511Q30 549 43 582T82 642T146 686T234 709V741Q234 749 239 754T253 760H270Q278 760 283 755T289 741V708Q323 705 352 696T406 676T447 654T475 635Q484 630 484 619T481 603L423 519Q417 511
410 510T396 513Q393 514 383 521T358 537T325 555T289 572V431Q318 419 355 401T424 354T479 287T501 197Q501 158 486 123T444 60T377 14T287 -9V-113Q287 -121 282 -126T268 -131H251Q243 -131 238 -126T232 -113V-9Q191 -6 159 3T103 24T64 47T40 67Z" />
<glyph unicode="%" glyph-name="percent" horiz-adv-x="659" d="M454 125Q454 111 464 101T488 91Q502 91 512 101T523 125Q523 139 513 149T488 160Q474 160 464 150T454 125ZM353 125Q353 153 363 177T392 220T435 249T488 260Q516 260 541 250T584 221T613
178T624 125Q624 97 614 73T585 30T541 1T488 -10Q460 -10 436 0T393 29T364 72T353 125ZM153 541Q167 541 177 551T187 576Q187 590 177 600T153 610Q139 610 129 600T118 576Q118 562 128 552T153 541ZM435 690Q438 695 443 697T452 700H528Q539 700 544 692T545
673L200 10Q198 7 193 4T183 0H109Q98 0 93 8T92 27L435 690ZM153 441Q125 441 101 451T58 480T29 523T18 576Q18 604 28 628T57 671T100 699T153 710Q181 710 205 700T248 671T277 629T288 576Q288 548 278 524T249 481T206 452T153 441Z" />
<glyph unicode="&amp;" glyph-name="ampersand" horiz-adv-x="699" d="M213 200Q213 164 240 140T307 115Q336 115 356 123T390 141Q405 152 415 166L284 305Q265 297 249 283Q235 271 224 251T213 200ZM322 449Q341 459 355 471Q367 482 377 497T387 534Q387
560 366 579T313 598Q285 598 270 584T254 549Q254 526 267 510T300 471L322 449ZM70 180Q70 234 91 272T139 335Q169 363 207 381V384L187 405Q157 437 139 470T121 548Q121 577 133 605T170 657T230 695T315 710Q358 710 394 697T458 662T500 609T515 543Q515
502 498 470T461 416T423 382T406 366L496 274Q506 290 515 311T529 351Q534 367 541 376T568 378L641 352Q652 348 655 342T659 330T658 317T654 306Q645 280 634 258T614 218T598 192T591 181L676 102Q681 98 685 94T689 84T687 72T674 56L618 -1Q609 -9 597
-9T573 2L508 67Q487 46 455 29Q428 15 388 3T290 -10Q242 -10 202 5T132 46T87 106T70 180Z" />
<glyph unicode="&apos;" glyph-name="quotesingle" horiz-adv-x="183" d="M50 501Q42 501 37 506T31 520V681Q31 689 36 694T50 700H153Q163 700 168 693T171 675L123 516Q121 510 116 506T105 501H50Z" />
<glyph unicode="(" glyph-name="parenleft" horiz-adv-x="344" d="M291 -79Q248 -76 203 -60T121 -1T61 118T37 315Q37 396 48 456T77 559T121 631T174 675T233 699T291 708Q299 709 305 704T311 690L315 605Q315 600 311 594T302 586Q239 566 213 498T187 315Q187
200 213 132T302 43Q307 41 311 35T315 24L311 -60Q309 -79 291 -79Z" />
<glyph unicode=")" glyph-name="parenright" horiz-adv-x="344" d="M29 25Q29 30 33 35T42 43Q105 63 131 131T157 315Q157 429 131 497T42 586Q37 588 33 594T29 605L33 690Q33 698 39 703T53 708Q82 707 111 700T169 676T223 631T266 560T296 456T307 315Q307
194 284 118T223 0T141 -59T53 -79Q45 -79 39 -74T33 -61L29 25Z" />
<glyph unicode="*" glyph-name="asterisk" horiz-adv-x="364" d="M160 347Q152 347 147 352T141 366L143 456L69 405Q63 400 55 402T43 410L21 445Q16 452 17 459T26 472L112 523L26 575Q19 580 18 587T20 602Q28 613 33 621T44 637Q49 642 56 644T69 641L143
590L141 681Q141 689 146 694T160 700H201Q209 700 214 695T220 681L218 590L293 641Q299 645 307 644T319 636L341 602Q346 595 345 587T336 574L250 523L336 471Q344 466 345 459T342 445L317 410Q313 404 306 403T292 405L218 455L220 366Q220 358 215 353T201
347H160Z" />
<glyph unicode="+" glyph-name="plus" horiz-adv-x="532" d="M212 292H66Q58 292 53 297T47 311V381Q47 389 52 394T66 400H212V547Q212 555 217 560T231 565H301Q309 565 314 560T320 547V400H467Q475 400 480 395T485 381V311Q485 303 480 298T467 292H320V146Q320
138 315 133T301 128H231Q223 128 218 133T212 146V292Z" />
<glyph unicode="," glyph-name="comma" horiz-adv-x="277" d="M28 83Q28 102 35 119T57 150T90 170T132 178Q150 178 171 171T209 145T238 98T250 27Q250 -25 236 -64T201 -132T161 -179T130 -207Q124 -212 116 -213T102 -207L81 -183Q67 -168 83 -155Q88 -151
102 -139T132 -107T160 -60T173 1Q166 -2 158 -5Q143 -10 121 -10Q102 -10 86 -3T56 17T36 47T28 83Z" />
<glyph unicode="-" glyph-name="hyphen" horiz-adv-x="359" d="M65 178Q57 178 52 183T46 196V287Q46 306 65 306H294Q313 306 313 287V196Q313 188 308 183T294 178H65Z" />
<glyph unicode="." glyph-name="period" horiz-adv-x="244" d="M27 84Q27 104 34 121T55 151T85 172T121 180Q141 180 158 173T188 152T209 121T217 84Q217 65 210 48T189 18T158 -2T121 -10Q102 -10 85 -3T55 18T35 48T27 84Z" />
<glyph unicode="/" glyph-name="slash" horiz-adv-x="372" d="M220 687Q224 700 238 700H336Q347 700 352 693T354 675L159 13Q157 8 152 4T141 0H42Q32 0 27 7T24 25L220 687Z" />
<glyph unicode="0" glyph-name="zero" horiz-adv-x="624" d="M312 135Q358 135 382 187T407 340Q407 439 383 492T312 545Q266 545 242 492T217 340Q217 240 241 188T312 135ZM312 -10Q251 -10 204 14T123 83T73 193T56 340Q56 422 73 487T123 597T203 666T312
690Q373 690 420 666T501 597T551 487T568 340Q568 258 551 193T501 83T421 14T312 -10Z" />
<glyph unicode="1" glyph-name="one" horiz-adv-x="374" d="M139 469H43Q35 469 30 474T25 488V551Q25 554 27 559T31 566L177 680H269Q277 680 282 675T287 661V19Q287 11 282 6T269 0H158Q150 0 145 5T139 19V469Z" />
<glyph unicode="2" glyph-name="two" horiz-adv-x="514" d="M23 39Q45 68 80 116T155 217T230 321T288 406Q298 421 306 441T314 482Q314 511 291 532T226 554Q195 554 169 537T129 504Q123 498 115 498T101 504L40 566Q35 571 35 578T39 592Q63 619 94 641Q120
660 157 675T239 690Q293 690 335 674T406 631T450 567T466 488Q466 468 464 452T456 421T443 391T427 358Q415 337 395 308T352 247T307 184T266 128H442Q450 128 455 123T461 109V19Q461 11 456 6T442 0H42Q34 0 29 5T23 19V39Z" />
<glyph unicode="3" glyph-name="three" horiz-adv-x="517" d="M30 79Q25 84 25 91T31 104L94 167Q106 179 119 169Q137 157 156 146Q173 137 192 130T229 123Q245 123 260 129T288 146T308 172T316 203Q316 236 285 260T197 284H141Q133 284 128 289T122 303V386Q122
394 127 399T141 405H197Q250 405 277 427T304 482Q304 514 280 535T224 557Q191 557 170 544T137 517Q132 511 124 511T110 516L49 576Q43 581 43 589T49 602Q74 627 104 646Q130 663 164 676T240 690Q284 690 323 677T391 641T438 583T456 507Q456 478 446 453T421
409T388 375T353 352V349Q371 342 392 327T431 290T461 241T474 181Q474 140 457 105T410 45T336 5T241 -10Q194 -10 158 0T96 24T54 54T30 79Z" />
<glyph unicode="4" glyph-name="four" horiz-adv-x="600" d="M330 265V451L171 265H330ZM33 141Q25 141 20 146T14 160V266L363 685Q365 687 368 689T378 691H450Q458 691 463 686T469 672L470 262H549Q557 262 562 257T568 244V161Q568 153 563 148T549 142H470L471
19Q471 11 466 6T452 0H345Q337 0 332 5T326 19V141H33Z" />
<glyph unicode="5" glyph-name="five" horiz-adv-x="527" d="M52 73Q42 84 42 91T50 107L113 169Q124 180 137 172Q158 159 179 148Q197 139 217 132T256 124Q297 124 324 150T351 219Q351 260 324 288T248 316H94Q79 316 71 327T63 351V661Q63 669 68 674T82
680H404Q412 680 417 675T423 661V573Q423 565 418 560T404 554H198V447H269Q321 447 363 430T435 383T481 310T497 219Q497 172 478 131T426 58T348 8T250 -10Q211 -10 179 -1T121 20T79 47T52 73Z" />
<glyph unicode="6" glyph-name="six" horiz-adv-x="538" d="M180 224Q180 205 187 188T208 157T238 136T276 128Q296 128 313 135T344 156T364 187T372 224Q372 244 365 261T344 292T314 313T276 321Q256 321 239 314T208 293T188 262T180 224ZM37 262Q37 336
56 395T105 500T172 582T247 641T318 680T373 702Q384 706 392 702T404 686L433 609Q436 600 433 593T414 580Q396 574 366 563T304 531T247 483T213 416Q233 424 260 430T308 436Q343 436 378 423T442 383T489 316T507 219Q507 172 489 130T440 57T367 8T278 -10Q220
-10 175 10T100 67T53 154T37 262Z" />
<glyph unicode="7" glyph-name="seven" horiz-adv-x="494" d="M37 30L287 552H55Q47 552 42 557T36 571V661Q36 669 41 674T55 680H477Q485 680 490 675T496 661V654L197 29Q188 10 178 5T156 0H57Q49 0 43 5T37 19V30Z" />
<glyph unicode="8" glyph-name="eight" horiz-adv-x="567" d="M202 188Q202 172 209 158T227 134T254 119T284 113Q299 113 313 118T339 134T358 158T365 188Q365 216 345 241T283 280Q244 266 223 241T202 188ZM283 418Q318 431 336 453T354 501Q354 527 333
546T283 566Q255 566 234 547T213 501Q213 445 283 418ZM40 181Q40 214 56 243T94 294T135 330T162 349V352Q147 360 130 374T96 408T70 452T59 507Q59 549 76 583T124 640T194 677T281 690Q329 690 370 677T442 641T490 583T508 507Q508 479 498 455T471 411T438
377T405 353V349Q422 340 443 325T483 288T514 240T527 181Q527 140 510 105T460 45T383 5T281 -10Q227 -10 183 4T107 44T58 105T40 181Z" />
<glyph unicode="9" glyph-name="nine" horiz-adv-x="537" d="M261 365Q281 365 298 372T329 393T349 424T357 462Q357 482 350 499T329 529T299 550T261 558Q241 558 224 551T193 530T173 499T165 462Q165 442 172 425T193 394T223 373T261 365ZM104 77Q101 86
104 93T123 106Q141 112 171 123T233 155T290 203T324 270Q304 262 277 256T229 250Q194 250 159 263T95 303T48 371T30 467Q30 514 48 556T97 629T170 678T259 696Q317 696 362 676T437 619T484 533T500 424Q500 351 482 292T434 186T367 104T292 45T221 6T164
-16Q141 -22 133 0L104 77Z" />
<glyph unicode=":" glyph-name="colon" horiz-adv-x="260" d="M51 69Q51 102 74 125T130 149Q163 149 186 126T210 69Q210 36 187 13T130 -10Q97 -10 74 13T51 69ZM130 251Q97 251 74 274T51 330Q51 363 74 386T130 410Q163 410 186 387T210 330Q210 297 187 274T130
251Z" />
<glyph unicode=";" glyph-name="semicolon" horiz-adv-x="237" d="M33 61Q33 90 55 111T112 133Q126 133 142 127T171 108T194 72T203 17Q203 -22 192 -52T165 -105T135 -141T110 -162Q105 -166 100 -166T88 -160L73 -145Q68 -139 68 -133T74 -123Q78 -120 89
-111T113 -86T135 -50T145 -3Q140 -5 134 -7Q124 -10 105 -10Q76 -10 55 10T33 61ZM107 251Q74 251 51 274T28 330Q28 363 51 386T107 410Q140 410 163 387T187 330Q187 297 164 274T107 251Z" />
<glyph unicode="&lt;" glyph-name="less" horiz-adv-x="435" d="M27 210Q23 212 20 217T17 227V232Q17 237 20 242T27 249L377 461Q387 467 396 462T405 445V358Q405 355 403 351T397 344L206 231L397 122Q400 120 402 116T405 108V21Q405 9 396 4T377 5L27 210Z" />
<glyph unicode="=" glyph-name="equal" horiz-adv-x="483" d="M72 120Q64 120 59 125T53 139V210Q53 218 58 223T72 229H411Q419 229 424 224T430 210V139Q430 131 425 126T411 120H72ZM72 331Q64 331 59 336T53 350V420Q53 428 58 433T72 439H411Q419 439 424
434T430 420V350Q430 342 425 337T411 331H72Z" />
<glyph unicode="&gt;" glyph-name="greater" horiz-adv-x="435" d="M30 108Q30 111 32 115T38 122L229 231L38 344Q35 346 33 350T30 358V445Q30 457 39 462T58 461L408 249Q412 247 415 242T418 232V227Q418 222 415 217T408 210L58 5Q48 -1 39 4T30 21V108Z" />
<glyph unicode="?" glyph-name="question" horiz-adv-x="453" d="M113 84Q113 104 120 121T141 151T171 172T207 180Q227 180 244 173T274 152T295 121T303 84Q303 65 296 48T275 18T244 -2T207 -10Q188 -10 171 -3T141 18T121 48T113 84ZM154 272Q146 272 141
277T135 291V333Q135 365 156 388T204 433T251 474T273 518Q273 541 252 559T198 577Q172 577 155 568T125 549T103 534T84 536L23 596Q17 601 17 609T23 622Q45 647 76 666Q102 683 140 696T226 710Q266 710 302 697T367 661T413 605T430 535Q430 502 419 479T391
437T355 404T319 373T291 338T280 291Q280 283 275 278T261 272H154Z" />
<glyph unicode="@" glyph-name="at" horiz-adv-x="990" d="M396 203Q396 161 418 140T469 118Q500 118 520 143T540 204Q540 242 520 266T466 290Q434 290 415 265T396 203ZM26 223Q26 330 61 419T161 573T314 674T510 710Q616 710 698 678T838 590T924 456T954
288Q954 239 942 186T901 90T827 18T717 -10Q665 -10 638 13T597 68H589Q572 36 538 13T456 -10Q413 -10 379 7T321 54T285 121T272 199Q272 241 286 279T325 347T384 393T460 410Q481 410 499 404T533 389T561 369T583 348Q586 356 589 365T596 381T605 394T617
400H658Q666 400 671 395T677 381V213Q677 180 682 161T695 132T713 118T733 115Q755 115 771 130T797 170T812 223T817 280Q817 345 798 400T739 497T642 561T505 584Q426 584 362 559T253 487T183 373T158 223Q158 167 175 116T222 21T295 -55T388 -110Q395 -113
398 -119T400 -133L370 -215Q367 -223 361 -226T347 -227Q278 -204 220 -160T118 -57T51 74T26 223Z" />
<glyph unicode="A" glyph-name="A" horiz-adv-x="662" d="M407 240L331 405H330L255 240H407ZM13 0Q2 0 -3 8T-4 26L309 699Q315 710 326 710H336Q348 710 353 699L666 26Q671 16 666 8T649 0H538Q524 0 517 5T503 25L467 104H195L159 24Q155 15 147 8T123 0H13Z" />
<glyph unicode="B" glyph-name="B" horiz-adv-x="612" d="M333 143Q362 143 383 164T405 216Q405 231 398 244T379 266T353 280T323 286H242V143H333ZM320 416Q349 416 369 437T390 488Q390 518 370 537T320 556H242V416H320ZM86 681Q86 689 91 694T105 700H338Q382
700 421 686T490 646T536 587T553 514Q553 485 542 461T513 416T475 380T437 356Q457 348 480 335T524 301T557 255T571 193Q571 151 554 116T507 55T438 15T353 0H105Q97 0 92 5T86 19V681Z" />
<glyph unicode="C" glyph-name="C" horiz-adv-x="673" d="M35 349Q35 424 63 490T140 604T255 681T396 710Q471 710 529 687T638 617Q653 603 639 589L561 508Q556 503 549 503T536 508Q508 533 473 546T401 559Q359 559 323 543T261 498T220 433T205 353Q205
311 220 275T261 210T323 166T402 150Q437 150 473 162T536 198Q541 203 549 203T562 197L640 114Q645 109 645 101T639 87Q588 37 526 14T396 -10Q321 -10 255 18T141 94T64 208T35 349Z" />
<glyph unicode="D" glyph-name="D" horiz-adv-x="735" d="M338 148Q380 148 416 163T478 206T518 271T533 351Q533 393 519 430T478 494T416 537T338 553H242V148H338ZM86 681Q86 689 91 694T104 700H348Q420 700 484 673T596 598T671 487T699 351Q699 278 672
214T596 103T484 28T348 0H104Q96 0 91 5T86 19V681Z" />
<glyph unicode="E" glyph-name="E" horiz-adv-x="586" d="M86 681Q86 689 91 694T105 700H519Q527 700 532 695T538 681V572Q538 564 533 559T519 553H242V429H470Q478 429 483 424T489 410V301Q489 293 484 288T470 282H242V147H519Q527 147 532 142T538 128V19Q538
11 533 6T519 0H105Q97 0 92 5T86 19V681Z" />
<glyph unicode="F" glyph-name="F" horiz-adv-x="563" d="M86 681Q86 689 91 694T105 700H519Q527 700 532 695T538 681V572Q538 564 533 559T519 553H242V409H470Q478 409 483 404T489 390V281Q489 273 484 268T470 262H242V19Q242 11 237 6T223 0H105Q97 0 92
5T86 19V681Z" />
<glyph unicode="G" glyph-name="G" horiz-adv-x="702" d="M36 349Q36 424 64 489T141 604T255 681T395 709Q458 709 523 685T639 615Q646 610 646 602T641 588L562 504Q549 493 535 503Q506 529 474 540T404 551Q363 551 327 535T265 492T223 427T207 349Q207
308 222 272T265 209T328 166T405 150Q427 150 449 153T494 166V224H431Q423 224 418 229T412 242V341Q412 360 431 360H632Q640 360 645 355T650 341L651 72Q651 62 643 56Q612 38 573 24Q540 12 495 2T395 -9Q320 -9 255 19T141 95T64 208T36 349Z" />
<glyph unicode="H" glyph-name="H" horiz-adv-x="772" d="M86 681Q86 689 91 694T105 700H224Q232 700 237 695T243 681V429H529V681Q529 689 534 694T548 700H667Q675 700 680 695T686 681V19Q686 11 681 6T667 0H548Q540 0 535 5T529 19V282H243V19Q243 11 238
6T224 0H105Q97 0 92 5T86 19V681Z" />
<glyph unicode="I" glyph-name="I" horiz-adv-x="330" d="M86 681Q86 689 91 694T105 700H225Q233 700 238 695T244 681V19Q244 11 239 6T225 0H105Q97 0 92 5T86 19V681Z" />
<glyph unicode="J" glyph-name="J" horiz-adv-x="424" d="M-14 63Q-22 76 -12 88L56 155Q62 160 69 160T83 155Q92 146 103 140T134 134Q155 134 174 153T193 210V681Q193 689 198 694T212 700H334Q342 700 347 695T353 681V209Q353 157 336 116T290 47T221 5T138
-10Q105 -10 80 -2T36 18T5 42T-14 63Z" />
<glyph unicode="K" glyph-name="K" horiz-adv-x="673" d="M86 676Q86 686 92 693T110 700H227Q237 700 244 693T251 676V413L473 690Q476 694 481 697T492 700H618Q632 700 638 687T636 663L402 370L657 38Q665 27 659 14T638 1H500Q495 1 490 3T482 8L251 322V24Q251
14 244 7T227 0H110Q99 0 93 7T86 24V676Z" />
<glyph unicode="L" glyph-name="L" horiz-adv-x="511" d="M86 681Q86 689 91 694T105 700H224Q232 700 237 695T243 681V147H481Q489 147 494 142T500 128V19Q500 11 495 6T481 0H105Q97 0 92 5T86 19V681Z" />
<glyph unicode="M" glyph-name="M" horiz-adv-x="878" d="M155 694Q156 701 161 705T173 710H189Q193 710 198 708T206 700L438 268H440L672 700Q674 705 679 707T689 710H705Q711 710 716 706T723 694L836 22Q838 12 832 6T817 0H699Q692 0 687 5T680 16L635
325H633L465 1Q463 -4 458 -7T448 -10H430Q419 -10 413 1L244 325H242L198 16Q197 10 192 5T179 0H61Q52 0 46 6T42 22L155 694Z" />
<glyph unicode="N" glyph-name="N" horiz-adv-x="773" d="M85 692Q85 700 90 705T104 710H129L528 326H529V681Q529 689 534 694T548 700H668Q676 700 681 695T687 681V8Q687 0 682 -5T668 -10H652Q650 -10 646 -9T639 -5L244 392H243V19Q243 11 238 6T224 0H105Q97
0 92 5T86 19L85 692Z" />
<glyph unicode="O" glyph-name="O" horiz-adv-x="789" d="M195 349Q195 308 211 272T254 209T317 166T394 150Q435 150 471 166T535 209T578 272T594 349Q594 390 578 426T535 490T472 534T394 550Q353 550 317 534T254 491T211 427T195 349ZM35 349Q35 424 63
490T139 604T253 681T394 710Q469 710 534 682T649 605T726 490T754 349Q754 274 726 209T649 95T535 18T394 -10Q319 -10 254 18T140 94T63 208T35 349Z" />
<glyph unicode="P" glyph-name="P" horiz-adv-x="589" d="M337 400Q369 400 392 422T416 479Q416 511 393 532T337 553H242V400H337ZM86 681Q86 689 91 694T105 700H346Q392 700 433 683T504 635T552 565T570 479Q570 433 553 392T505 320T434 272T347 254H242V19Q242
11 237 6T223 0H105Q97 0 92 5T86 19V681Z" />
<glyph unicode="Q" glyph-name="Q" horiz-adv-x="792" d="M195 349Q195 308 211 272T254 209T317 166T394 150Q435 150 471 166T535 209T578 272T594 349Q594 390 578 426T535 490T472 534T394 550Q353 550 317 534T254 491T211 427T195 349ZM35 349Q35 424 63
490T139 604T253 681T394 710Q469 710 534 682T649 605T726 490T754 349Q754 300 741 254T703 168T644 93T569 34L698 -168Q704 -179 699 -188T682 -198H547Q541 -198 537 -195T531 -188L425 -9Q416 -10 408 -10T394 -10Q319 -10 254 18T140 94T63 208T35 349Z"
/>
<glyph unicode="R" glyph-name="R" horiz-adv-x="670" d="M391 401Q422 401 444 425T467 481Q467 513 445 535T391 557H243V401H391ZM86 681Q86 689 91 694T105 700H404Q449 700 488 683T558 637T605 568T622 484Q622 415 581 362T474 283L611 29Q616 19 612 10T594
0H461Q455 0 451 3T445 9L312 274H243V19Q243 11 238 6T224 0H105Q97 0 92 5T86 19V681Z" />
<glyph unicode="S" glyph-name="S" horiz-adv-x="548" d="M51 67Q43 75 42 79T46 95L93 178Q99 188 110 188T127 184Q129 183 142 175T175 156T219 138T269 129Q299 129 318 146T338 189Q338 221 312 245T235 290Q203 303 169 322T106 368T59 430T41 511Q41 548
55 584T99 648T171 693T272 710Q311 710 345 702T406 681T454 656T486 635Q495 630 495 619T492 603L441 526Q436 518 425 513T407 513Q404 515 390 524T355 545T311 564T264 573Q237 573 219 558T201 522Q201 494 225 472T310 425Q339 413 374 395T440 350T491
286T512 197Q512 158 496 121T450 55T375 8T276 -10Q227 -10 189 -1T124 20T78 45T51 67Z" />
<glyph unicode="T" glyph-name="T" horiz-adv-x="510" d="M176 553H33Q25 553 20 558T14 572V681Q14 689 19 694T33 700H477Q485 700 490 695T496 681V572Q496 564 491 559T477 553H334V19Q334 11 329 6T315 0H195Q187 0 182 5T176 19V553Z" />
<glyph unicode="U" glyph-name="U" horiz-adv-x="721" d="M76 681Q76 689 81 694T95 700H218Q226 700 231 695T237 681V276Q237 250 246 227T271 187T310 160T360 150Q387 150 410 160T449 187T475 227T485 276V681Q485 689 490 694T504 700H627Q635 700 640 695T646
681V268Q646 211 624 161T562 72T471 12T360 -10Q301 -10 250 12T160 72T99 160T76 268V681Z" />
<glyph unicode="V" glyph-name="V" horiz-adv-x="662" d="M-4 674Q-9 684 -4 692T13 700H146Q152 700 156 697T163 689L328 324H334L499 689Q501 693 505 696T516 700H649Q660 700 665 692T666 674L352 1Q347 -10 335 -10H325Q314 -10 308 1L-4 674Z" />
<glyph unicode="W" glyph-name="W" horiz-adv-x="896" d="M24 676Q21 687 26 693T42 700H159Q165 700 170 696T177 686L263 347H267L422 699Q428 710 439 710H457Q470 710 474 699L629 347H633L719 686Q721 691 726 695T737 700H854Q865 700 870 694T872 676L683
4Q681 -2 676 -6T665 -10H649Q638 -10 632 1L449 410H446L264 1Q259 -10 247 -10H231Q217 -10 213 4L24 676Z" />
<glyph unicode="X" glyph-name="X" horiz-adv-x="655" d="M234 359L32 672Q26 682 31 691T49 700H195Q200 700 204 697T211 691L326 505H327L444 691Q446 694 450 697T460 700H606Q619 700 624 691T623 672L420 359L630 28Q637 17 632 9T614 0H475Q470 0 465 2T458
9L327 211H325L197 9Q195 6 191 3T180 0H41Q28 0 23 9T24 28L234 359Z" />
<glyph unicode="Y" glyph-name="Y" horiz-adv-x="590" d="M215 337L-6 671Q-12 681 -7 690T10 700H140Q146 700 150 697T156 691L295 486L434 691Q436 694 439 697T450 700H580Q592 700 597 691T596 671L372 338V19Q372 11 367 6T353 0H234Q226 0 221 5T215 19V337Z" />
<glyph unicode="Z" glyph-name="Z" horiz-adv-x="542" d="M23 37L289 551V553H71Q63 553 58 558T52 572V681Q52 689 57 694T71 700H496Q504 700 509 695T515 681V668L258 149V147H476Q484 147 489 142T495 128V19Q495 11 490 6T476 0H42Q34 0 29 5T23 19V37Z" />
<glyph unicode="[" glyph-name="bracketleft" horiz-adv-x="361" d="M325 -183Q333 -183 338 -188T344 -201V-282Q344 -290 339 -295T325 -301H79Q71 -301 66 -296T60 -282V681Q60 689 65 694T79 700H325Q333 700 338 695T344 681V601Q344 593 339 588T325 582H198V-183H325Z"
/>
<glyph unicode="\" glyph-name="backslash" horiz-adv-x="372" d="M18 675Q15 686 20 693T36 700H134Q148 700 152 687L348 25Q351 14 346 7T330 0H231Q226 0 221 4T213 13L18 675Z" />
<glyph unicode="]" glyph-name="bracketright" horiz-adv-x="361" d="M163 -183V582H36Q28 582 23 587T17 601V681Q17 689 22 694T36 700H282Q290 700 295 695T301 681V-282Q301 -290 296 -295T282 -301H36Q28 -301 23 -296T17 -282V-201Q17 -193 22 -188T36 -183H163Z" />
<glyph unicode="^" glyph-name="asciicircum" horiz-adv-x="524" d="M50 378Q38 378 33 387T34 406L245 704Q247 708 252 711T262 714H267Q272 714 277 711T284 704L490 406Q496 396 491 387T474 378H387Q384 378 380 380T373 386L263 535L151 386Q149 383 145
381T137 378H50Z" />
<glyph unicode="_" glyph-name="underscore" horiz-adv-x="431" d="M17 -29Q17 -10 36 -10H395Q414 -10 414 -29V-80Q414 -88 409 -93T395 -98H36Q28 -98 23 -93T17 -80V-29Z" />
<glyph unicode="`" glyph-name="grave" horiz-adv-x="302" d="M50 594Q44 598 41 605T44 624L78 683Q82 690 90 690T104 686L274 582Q278 579 280 574T280 563L259 521Q255 513 249 510T232 512L50 594Z" />
<glyph unicode="a" glyph-name="a" horiz-adv-x="429" d="M157 132Q157 114 169 101T200 88Q218 88 231 101T244 132Q243 149 231 161T200 174Q182 174 170 162T157 132ZM27 122Q27 180 66 218T174 256Q191 256 204 254T229 248Q241 244 251 240Q251 269 242 284T197
299Q187 299 174 298T147 295T120 290T97 284Q86 280 81 287T73 305L64 368Q62 381 67 387T79 395Q82 396 96 398T129 403T170 408T212 410Q305 410 343 370T381 240V19Q381 11 376 6T362 0H318Q313 0 309 2T300 13L286 40Q269 24 241 7T165 -10Q135 -10 110 -1T67
26T38 68T27 122Z" />
<glyph unicode="b" glyph-name="b" horiz-adv-x="510" d="M187 201Q187 166 209 143T267 119Q302 119 325 142T348 201Q348 235 325 258T267 281Q232 281 210 258T187 201ZM54 681Q54 689 59 694T73 700H184Q192 700 197 695T203 681V391Q212 396 236 403T286
410Q326 410 362 397T425 358T469 293T485 200Q485 157 470 119T429 52T366 7T287 -10Q254 -10 229 0T187 22Q167 36 153 53L141 20Q138 12 133 6T120 0H73Q65 0 60 5T54 19V681Z" />
<glyph unicode="c" glyph-name="c" horiz-adv-x="420" d="M23 200Q23 244 40 282T88 349T157 394T239 410Q287 410 323 392T389 338Q394 331 393 324T384 310L324 253Q320 249 313 250T302 255Q291 266 276 273T244 281Q211 281 188 257T164 200Q164 166 186 143T242
119Q268 119 283 128T310 150Q322 162 332 154L392 102Q399 96 401 89T399 74Q344 -10 238 -10Q195 -10 156 6T88 50T41 116T23 200Z" />
<glyph unicode="d" glyph-name="d" horiz-adv-x="510" d="M162 201Q162 166 185 143T243 119Q278 119 300 142T323 201Q323 235 301 258T243 281Q208 281 185 258T162 201ZM25 200Q25 253 41 292T84 358T148 397T224 410Q250 410 274 403T307 391V681Q307 689
312 694T326 700H437Q445 700 450 695T456 681V19Q456 11 451 6T437 0H390Q382 0 377 6T369 20L357 53Q343 36 323 22Q306 10 281 0T223 -10Q181 -10 145 6T82 51T40 118T25 200Z" />
<glyph unicode="e" glyph-name="e" horiz-adv-x="439" d="M280 256Q278 276 263 289T227 303Q207 303 192 290T173 256H280ZM24 200Q24 242 40 280T83 347T149 393T231 410Q269 410 303 396T364 357T405 298T421 222Q421 217 421 209T419 195Q418 187 413 183T400
178H160Q161 168 166 157T180 135T203 119T237 112Q256 112 275 119T307 136Q322 148 332 136L382 76Q387 70 387 62T381 47Q355 21 318 6T233 -10Q188 -10 150 6T84 51T40 118T24 200Z" />
<glyph unicode="f" glyph-name="f" horiz-adv-x="356" d="M75 273H54Q46 273 41 278T35 292V381Q35 400 54 400H75V492Q75 545 90 585T133 653T197 695T278 710Q298 710 317 707T352 697T381 685T400 672Q405 668 406 661T404 649L362 566Q360 561 353 559T339
559Q329 564 316 569T287 575Q255 575 242 552T228 492V400H320Q339 400 339 381V292Q339 284 334 279T320 273H228V19Q228 11 223 6T209 0H94Q86 0 81 5T75 19V273Z" />
<glyph unicode="g" glyph-name="g" horiz-adv-x="465" d="M164 -146Q164 -167 182 -180T236 -193Q274 -193 291 -180T308 -146Q308 -130 293 -117T236 -104Q209 -104 187 -114T164 -146ZM189 228Q189 205 204 191T242 176Q265 176 280 190T295 228Q295 251 280
265T242 280Q219 280 204 266T189 228ZM11 36Q11 66 23 86T51 121Q69 137 91 146Q83 156 77 169Q72 180 67 197T62 237Q62 272 76 303T114 358T170 396T238 410H427Q446 410 446 391V350Q446 339 435 333L377 312Q387 302 396 288Q404 276 409 258T415 215Q415
188 403 161T369 113T314 78T242 64H170Q154 64 146 57T137 37Q137 23 147 17T169 10H289Q324 10 355 0T410 -30T447 -76T461 -136Q461 -172 448 -203T408 -259T338 -296T236 -310Q178 -310 138 -298T74 -266T38 -222T27 -174Q27 -152 35 -135T53 -106T74 -87T88
-78V-75Q83 -74 71 -68T45 -48T21 -15T11 36Z" />
<glyph unicode="h" glyph-name="h" horiz-adv-x="530" d="M54 681Q54 689 59 694T73 700H184Q192 700 197 695T203 681V387Q249 410 296 410Q343 410 379 393T439 347T475 280T487 200V19Q487 11 482 6T468 0H362Q354 0 349 5T343 19V202Q343 235 323 258T270
281Q258 281 246 277T225 264T209 240T203 202V19Q203 9 199 5T181 0H73Q65 0 60 5T54 19V681Z" />
<glyph unicode="i" glyph-name="i" horiz-adv-x="256" d="M54 381Q54 389 59 394T73 400H183Q191 400 196 395T202 381V19Q202 11 197 6T183 0H73Q65 0 60 5T54 19V381ZM127 521Q94 521 71 544T48 600Q48 633 71 656T127 680Q160 680 183 657T207 600Q207 567
184 544T127 521Z" />
<glyph unicode="j" glyph-name="j" horiz-adv-x="257" d="M54 381Q54 389 59 394T73 400H184Q192 400 197 395T203 381V-92Q203 -145 188 -185T145 -253T81 -295T0 -310Q-20 -310 -39 -307T-74 -297T-103 -285T-122 -272Q-127 -268 -128 -261T-126 -249L-84 -166Q-82
-161 -75 -159T-61 -159Q-51 -164 -38 -169T-9 -175Q25 -175 39 -152T54 -92V381ZM128 521Q95 521 72 544T49 600Q49 633 72 656T128 680Q161 680 184 657T208 600Q208 567 185 544T128 521Z" />
<glyph unicode="k" glyph-name="k" horiz-adv-x="511" d="M54 681Q54 689 59 694T73 700H184Q192 700 197 695T203 681V248L324 388Q329 393 334 396T349 400H461Q474 400 479 390T476 369L344 216L504 30Q512 20 507 10T489 0H354Q351 0 346 2T339 8L203 182V19Q203
11 198 6T184 0H73Q65 0 60 5T54 19V681Z" />
<glyph unicode="l" glyph-name="l" horiz-adv-x="256" d="M54 681Q54 689 59 694T73 700H183Q191 700 196 695T202 681V19Q202 11 197 6T183 0H73Q65 0 60 5T54 19V681Z" />
<glyph unicode="m" glyph-name="m" horiz-adv-x="786" d="M54 381Q54 400 73 400H119Q131 400 136 389L153 348Q162 358 175 369T206 389T243 404T288 410Q330 410 361 395T419 349Q428 358 441 368T471 388T510 403T557 410Q604 410 638 393T696 348T730 281T742
200V19Q742 11 737 6T723 0H617Q609 0 604 5T598 19V206Q598 236 582 258T531 281Q505 281 485 262T464 213V19Q464 11 459 6T445 0H349Q341 0 336 5T330 19V206Q330 236 316 258T267 281Q237 281 217 262T197 211V19Q197 11 192 6T178 0H73Q65 0 60 5T54 19V381Z"
/>
<glyph unicode="n" glyph-name="n" horiz-adv-x="528" d="M54 381Q54 389 59 394T73 400H120Q125 400 130 397T138 388L154 348Q162 357 175 368T205 388T245 403T295 410Q342 410 377 394T437 349T473 282T485 201V19Q485 11 480 6T466 0H359Q351 0 346 5T340
19V206Q340 236 323 258T272 281Q242 281 219 262T196 211V19Q196 12 193 6T178 0H73Q65 0 60 5T54 19V381Z" />
<glyph unicode="o" glyph-name="o" horiz-adv-x="462" d="M152 201Q152 167 175 143T231 119Q264 119 287 143T310 201Q310 234 287 257T231 281Q198 281 175 258T152 201ZM23 201Q23 243 39 281T84 347T150 393T231 410Q274 410 311 393T377 348T422 281T439
201Q439 158 423 120T378 53T312 7T231 -10Q188 -10 151 7T85 52T40 119T23 201Z" />
<glyph unicode="p" glyph-name="p" horiz-adv-x="510" d="M187 199Q187 165 209 142T267 119Q302 119 325 142T348 199Q348 234 325 257T267 281Q232 281 210 258T187 199ZM203 -281Q203 -289 198 -294T184 -300H73Q65 -300 60 -295T54 -281V381Q54 389 59 394T73
400H120Q128 400 133 394T141 380L153 347Q167 365 187 379Q204 391 229 400T287 410Q329 410 365 394T428 349T470 282T485 200Q485 147 469 108T426 42T362 3T286 -10Q260 -10 236 -3T203 9V-281Z" />
<glyph unicode="q" glyph-name="q" horiz-adv-x="510" d="M162 199Q162 165 185 142T243 119Q278 119 300 142T323 199Q323 234 301 257T243 281Q208 281 185 258T162 199ZM25 200Q25 243 40 281T81 348T144 393T223 410Q256 410 281 401T323 379Q343 365 357
347L369 380Q372 388 377 394T390 400H437Q445 400 450 395T456 381V-281Q456 -289 451 -294T437 -300H326Q318 -300 313 -295T307 -281V9Q298 4 274 -3T224 -10Q184 -10 148 3T85 42T41 107T25 200Z" />
<glyph unicode="r" glyph-name="r" horiz-adv-x="345" d="M54 381Q54 389 59 394T73 400H120Q128 400 132 397T138 388L156 344Q164 355 174 366T198 388T229 404T265 410Q286 410 303 407T331 397T346 384T345 367L296 287Q293 282 288 279T274 278Q270 280 264
281T250 283Q227 283 212 268T197 226V19Q197 0 175 0H73Q65 0 60 5T54 19V381Z" />
<glyph unicode="s" glyph-name="s" horiz-adv-x="371" d="M40 23Q35 28 32 32T33 44L68 113Q70 118 76 121T89 121Q103 114 118 108Q131 103 147 99T179 95Q187 95 192 99T198 113Q198 121 189 131T141 155Q82 175 56 208T29 289Q29 314 38 336T66 374T115 400T185
410Q233 410 267 400T318 379Q325 374 329 368T328 354L291 286Q289 281 283 280T270 280Q256 287 242 292Q230 297 215 300T185 303Q163 303 163 289Q163 281 172 274T208 257Q238 247 263 235T307 207T335 169T345 117Q345 91 335 68T303 28T250 0T176 -10Q126
-10 91 0T40 23Z" />
<glyph unicode="t" glyph-name="t" horiz-adv-x="344" d="M70 273H44Q36 273 31 278T26 292V381Q26 389 31 394T44 400H70V511Q70 519 75 524T89 530H196Q204 530 209 525T214 511V400H288Q307 400 307 381V292Q307 284 302 279T288 273H214V148Q214 131 223 128T241
124Q252 124 262 126T280 131Q288 133 294 130T302 118L324 35Q326 28 323 21T311 12Q290 6 269 1Q251 -4 230 -7T190 -10Q133 -10 102 25T70 129V273Z" />
<glyph unicode="u" glyph-name="u" horiz-adv-x="510" d="M45 381Q45 389 50 394T64 400H171Q179 400 184 395T190 381V196Q190 165 206 142T254 119Q283 119 298 141T314 190V381Q314 393 320 396T335 400H437Q445 400 450 395T456 381V19Q456 11 451 6T437 0H390Q383
0 378 4T371 14L356 51Q346 42 335 31T308 11T271 -4T221 -10Q176 -10 143 7T89 52T56 119T45 200V381Z" />
<glyph unicode="v" glyph-name="v" horiz-adv-x="426" d="M4 373Q-1 383 4 391T21 400H133Q146 400 151 389L210 253H213L276 389Q281 398 286 399T303 400H404Q415 400 420 392T421 373L231 0Q229 -4 224 -7T214 -10H209Q204 -10 199 -7T192 0L4 373Z" />
<glyph unicode="w" glyph-name="w" horiz-adv-x="619" d="M10 375Q6 385 11 392T28 400H123Q128 400 133 397T141 388L193 251H194L289 402Q291 404 294 407T305 410H315Q326 410 330 402L426 251H427L478 388Q483 400 498 400H591Q602 400 607 393T609 375L476
2Q474 -3 469 -6T458 -10H454Q450 -10 445 -8T438 -2L309 198H308L181 -2Q175 -10 165 -10H160Q155 -10 150 -7T143 2L10 375Z" />
<glyph unicode="x" glyph-name="x" horiz-adv-x="469" d="M34 0Q21 0 17 10T19 30L149 204L23 370Q15 380 20 390T38 400H161Q173 400 177 392L233 310H236L293 392Q295 395 298 397T309 400H432Q445 400 450 390T447 370L321 205L448 30Q455 20 450 10T433 0H312Q307
0 303 3T297 9L236 95H233Q218 74 200 50T169 8Q163 0 153 0H34Z" />
<glyph unicode="y" glyph-name="y" horiz-adv-x="465" d="M6 374Q1 384 6 392T23 400H137Q149 400 154 389L231 203H233L312 389Q316 400 329 400H442Q453 400 458 392T459 374L153 -288Q151 -293 147 -296T136 -300H24Q13 -300 8 -292T7 -273L156 41L6 374Z" />
<glyph unicode="z" glyph-name="z" horiz-adv-x="369" d="M28 29L145 269V271H56Q48 271 43 276T38 290V381Q38 389 43 394T56 400H327Q338 400 343 392T344 373L218 130V128H307Q326 128 326 109V19Q326 11 321 6T307 0H47Q39 0 34 5T28 19V29Z" />
<glyph unicode="{" glyph-name="braceleft" horiz-adv-x="393" d="M101 85Q101 102 94 113T76 132T53 143T32 149Q26 150 22 155T17 167V225Q17 231 21 236T30 243Q50 250 66 260Q80 268 90 280T101 307V418Q101 508 125 563T187 650T268 694T351 709Q369 711
371 692Q373 669 373 650T376 607Q376 601 372 596T362 588Q309 574 281 533T252 418V327Q252 298 239 274T210 233Q192 214 167 199V195Q177 191 191 182T219 158T242 123T252 75V-19Q252 -93 280 -134T362 -189Q367 -191 371 -196T376 -208Q375 -234 375 -252T371
-293Q370 -301 365 -306T351 -310Q312 -308 269 -296T188 -252T126 -165T101 -19V85Z" />
<glyph unicode="|" glyph-name="bar" horiz-adv-x="174" d="M60 741Q60 749 65 754T79 760H96Q104 760 109 755T114 741V-282Q114 -290 109 -295T95 -300H79Q71 -300 66 -295T60 -282V741Z" />
<glyph unicode="}" glyph-name="braceright" horiz-adv-x="393" d="M141 -19V75Q141 102 150 122T173 158T201 182T226 195V199Q202 214 184 233Q168 250 155 274T141 327V418Q141 492 113 533T31 588Q26 590 22 595T17 607Q19 630 19 649T22 692Q24 711 42 709Q81
707 124 695T205 651T267 564T292 418V307Q292 292 303 280T328 260Q344 250 363 243Q368 241 372 236T376 225V167Q376 161 372 156T361 149Q352 147 340 143T318 132T300 114T292 85V-19Q292 -109 268 -164T206 -251T125 -295T42 -310Q34 -311 29 -306T22 -293Q19
-270 19 -252T17 -208Q17 -202 21 -197T31 -189Q84 -175 112 -134T141 -19Z" />
<glyph unicode="~" glyph-name="asciitilde" horiz-adv-x="526" d="M23 235Q18 240 17 247T21 259Q41 287 67 310Q89 330 117 345T179 361Q210 361 232 349T277 322Q294 311 311 301T350 291Q370 291 386 308T414 340Q420 348 428 348T443 341L501 280Q506 275
507 268T503 255Q483 227 458 205Q437 186 409 170T349 154Q311 154 287 167T237 198Q223 207 209 214T177 222Q156 222 140 206T113 174Q107 166 99 166T84 172L23 235Z" />
</font>
</defs>
</svg>
