<?xml version="1.0" standalone="no"?> <!DOCTYPE svg PUBLIC "-//W3C//DTD SVG 1.0//EN" "http://www.w3.org/TR/2001/REC-SVG-20010904/DTD/svg10.dtd" > <svg xmlns="http://www.w3.org/2000/svg" width="100%" height="100%">
<defs >
<font id="brandongrotesque-light" horiz-adv-x="382" ><font-face
    font-family="BrandonGrotesque"
    units-per-em="1000"
    panose-1="2 11 3 3 2 2 3 6 2 2"
    ascent="1050"
    descent="-379"
    alphabetic="0" />
<missing-glyph horiz-adv-x="599" d="M245 156Q245 136 259 122T293 108Q313 108 327 122T342 156Q342 176 328 190T293 204Q273 204 259 190T245 156ZM262 314Q262 309 266 306T276 302H312Q327 302 327 315V341Q327 359 343 372T379 401T415 437T432 491Q432
515 423 535T396 571T357 594T307 602Q275 602 251 593T209 572Q190 559 177 541Q174 536 173 532T177 523L199 501Q208 495 216 501Q221 506 228 512T245 526T268 537T300 542Q330 542 345 526T361 490Q361 466 346 451T312 421T278 389T262 343V314ZM50 670Q50
700 80 700H519Q549 700 549 670V30Q549 0 519 0H80Q50 0 50 30V670Z" />
<glyph unicode=" " glyph-name="space" horiz-adv-x="217" />
<glyph unicode="!" glyph-name="exclam" horiz-adv-x="296" d="M107 30Q107 47 119 58T148 70Q165 70 176 59T188 30Q188 13 177 2T148 -10Q131 -10 119 1T107 30ZM144 269Q139 269 135 272T131 281L121 565V687Q121 695 126 697T136 700H161Q174 700 174 687V566L165
281Q165 276 161 273T152 269H144Z" />
<glyph unicode="&quot;" glyph-name="quotedbl" horiz-adv-x="299" d="M65 496Q56 496 56 507V687Q56 700 69 700H90Q104 700 102 684L86 507Q84 496 76 496H65ZM215 496Q206 496 206 507V687Q206 700 219 700H240Q254 700 252 684L236 507Q234 496 226 496H215Z" />
<glyph unicode="#" glyph-name="numbersign" horiz-adv-x="550" d="M341 237L371 419H209L178 237H341ZM142 206H58Q46 206 46 219V224Q46 237 58 237H146L177 419H87Q74 419 74 432V438Q74 451 87 451H182L222 689Q223 695 226 697T235 700H241Q247 700 250 696T252
685L213 451H376L416 689Q417 695 420 697T429 700H436Q442 700 444 696T446 685L407 451H490Q502 451 502 438V432Q502 419 491 419H403L372 237H461Q474 237 474 224V219Q474 206 462 206H367L334 11Q332 0 321 0H315Q300 0 303 15L336 206H172L140 11Q138 0
127 0H121Q106 0 109 15L142 206Z" />
<glyph unicode="$" glyph-name="dollar" horiz-adv-x="533" d="M287 33Q319 35 347 46T396 75T429 116T442 166Q442 225 401 259T287 320V33ZM257 666Q214 664 185 651T137 619T110 578T101 534Q101 503 112 480T143 440T192 409T257 383V666ZM61 72Q56 76 54
80T58 93L69 107Q75 115 81 112T94 104Q100 99 114 88T149 66T197 45T257 33V333Q211 348 174 365T111 404T70 458T55 533Q55 560 66 590T101 645T163 688T257 709V746Q257 753 261 756T271 759H275Q288 759 288 746V708Q322 706 350 698T399 681Q424 670 443 658Q447
655 450 651T448 638L438 623Q433 615 428 616T417 619Q416 620 406 626T378 640T337 655T288 665Q288 591 288 518T287 371Q334 355 372 337T436 294T477 239T491 167Q491 131 475 100T430 45T365 7T287 -10V-118Q287 -124 283 -127T273 -130Q267 -130 262 -128T257
-118V-10Q216 -8 182 3T123 29T82 55T61 72Z" />
<glyph unicode="%" glyph-name="percent" horiz-adv-x="688" d="M391 127Q391 106 399 88T420 57T452 35T492 27Q513 27 531 35T562 56T584 88T592 127Q592 169 563 198T492 227Q471 227 453 219T421 198T399 166T391 127ZM354 127Q354 156 364 181T394 225T438
255T492 266Q521 266 546 255T589 226T619 182T630 127Q630 99 619 74T590 30T546 0T492 -11Q463 -11 438 0T394 29T365 73T354 127ZM179 471Q200 471 218 479T249 500T271 532T279 572Q279 614 250 643T179 672Q158 672 140 664T109 643T87 611T79 572Q79 551
87 533T108 501T140 479T179 471ZM500 695Q502 699 505 699T512 700H530Q537 700 539 694T538 681L157 7Q155 4 152 2T145 0H127Q120 0 118 5T120 17L500 695ZM179 434Q151 434 126 444T82 474T52 518T41 572Q41 601 52 626T81 670T125 699T179 710Q208 710 233
700T276 670T306 626T317 572Q317 543 306 518T277 474T233 445T179 434Z" />
<glyph unicode="&amp;" glyph-name="ampersand" horiz-adv-x="678" d="M134 173Q134 143 145 117T175 72T222 41T281 30Q344 30 394 57T483 129L266 349Q242 336 218 319T176 281T146 233T134 173ZM276 398Q303 412 330 428T378 465T413 508T426 558Q426 579 419
599T396 635T358 661T305 671Q273 671 249 661T210 634T187 596T179 554Q178 519 199 487T247 427Q255 420 261 413T276 398ZM90 173Q90 212 103 243T137 299T184 343T238 376L223 392Q207 410 191 428T163 466T144 508T137 555Q137 581 147 608T178 658T231 695T308
710Q348 710 378 698T429 664T459 616T470 559Q470 528 456 500T418 448T365 404T305 369L509 167Q538 213 553 265T569 371Q569 375 569 381T568 391Q568 400 576 400H597Q606 400 609 391Q611 386 611 381T611 371Q611 311 592 251T539 138L643 35Q649 30 651
24T647 12L631 -3Q625 -9 620 -7T611 -1L511 100Q468 49 410 20T280 -10Q235 -10 200 5T140 45T103 103T90 173Z" />
<glyph unicode="&apos;" glyph-name="quotesingle" horiz-adv-x="149" d="M65 496Q56 496 56 507V687Q56 700 69 700H90Q104 700 102 684L86 507Q84 496 76 496H65Z" />
<glyph unicode="(" glyph-name="parenleft" horiz-adv-x="344" d="M307 -43Q317 -43 315 -55L314 -70Q314 -80 302 -78Q259 -76 216 -56T139 10T84 130T63 315Q63 425 84 499T139 620T216 686T302 709Q314 709 314 700L315 685Q317 673 307 673Q263 667 227 644T164
578T122 470T107 315Q107 225 122 161T163 53T226 -14T307 -43Z" />
<glyph unicode=")" glyph-name="parenright" horiz-adv-x="344" d="M38 -43Q82 -37 118 -14T181 52T222 160T237 315Q237 405 223 469T182 577T119 644T38 673Q27 673 29 685L30 700Q32 709 43 709Q86 707 128 687T205 620T260 500T281 315Q281 205 260 131T205
10T129 -56T43 -78Q32 -79 30 -70L29 -55Q27 -43 38 -43Z" />
<glyph unicode="*" glyph-name="asterisk" horiz-adv-x="340" d="M166 410Q153 410 153 423L154 526L66 471Q56 464 49 475L44 483Q41 488 42 493T48 500L139 555L47 610Q43 612 42 617T43 627L49 637Q54 645 65 639L154 584L153 687Q153 700 166 700H174Q187
700 187 687L186 584L274 640Q283 645 291 636L296 628Q301 617 292 611L200 555L293 499Q297 497 298 492T297 483L292 474Q285 463 274 470L186 526L187 423Q187 410 174 410H166Z" />
<glyph unicode="+" glyph-name="plus" horiz-adv-x="505" d="M232 326H60Q47 326 47 339V354Q47 367 60 367H232V540Q232 552 245 552H261Q274 552 274 540V367H445Q458 367 458 354V339Q458 326 445 326H274V155Q274 142 261 142H245Q232 142 232 155V326Z" />
<glyph unicode="," glyph-name="comma" horiz-adv-x="231" d="M71 30Q71 48 82 58T113 69Q135 69 152 47T169 -25Q169 -55 161 -79T140 -120T116 -149T97 -164Q85 -171 80 -164L72 -154Q65 -146 76 -138Q78 -137 86 -131T103 -112T121 -83T132 -43Q133 -21 127
-5Q119 -10 111 -10Q91 -10 81 2T71 30Z" />
<glyph unicode="-" glyph-name="hyphen" horiz-adv-x="478" d="M126 231Q114 231 114 244V255Q114 268 126 268H352Q365 268 365 255V244Q365 231 352 231H126Z" />
<glyph unicode="." glyph-name="period" horiz-adv-x="223" d="M71 30Q71 47 83 58T112 70Q129 70 140 59T152 30Q152 13 141 2T112 -10Q95 -10 83 1T71 30Z" />
<glyph unicode="/" glyph-name="slash" horiz-adv-x="327" d="M262 692Q265 700 275 700H289Q296 700 299 696T301 686L80 9Q77 0 67 0H52Q46 0 43 3T41 14L262 692Z" />
<glyph unicode="0" glyph-name="zero" horiz-adv-x="644" d="M322 31Q419 31 470 111T522 341Q522 488 471 569T322 650Q225 650 173 569T121 341Q121 192 173 112T322 31ZM322 -10Q264 -10 218 14T141 83T94 194T77 341Q77 423 93 488T141 598T218 668T322 692Q381
692 426 668T503 599T550 488T567 341Q567 259 551 194T503 84T427 14T322 -10Z" />
<glyph unicode="1" glyph-name="one" horiz-adv-x="322" d="M166 614L47 516Q38 509 32 517L20 531Q13 539 22 546L182 681H197Q203 681 207 678T212 669V13Q212 0 199 0H179Q166 0 166 13V614Z" />
<glyph unicode="2" glyph-name="two" horiz-adv-x="524" d="M40 30L305 296Q358 349 387 397T416 494Q416 523 406 550T375 599T323 634T248 648Q214 648 188 638T143 613T113 586T96 567Q87 556 76 564L64 574Q55 583 62 592Q82 620 109 642Q132 661 166 676T248
691Q301 691 341 675T408 632T449 570T463 495Q463 429 427 376T337 268L109 41H445Q458 41 458 28V13Q458 0 445 0H53Q47 0 44 3T40 12V30Z" />
<glyph unicode="3" glyph-name="three" horiz-adv-x="546" d="M52 79Q44 89 52 96L68 109Q73 114 77 113T86 106Q95 98 107 85T139 60T187 39T256 30Q295 30 327 40T383 70T420 118T433 180Q433 216 418 243T377 289T319 317T253 326H160Q147 326 147 339V357Q147
369 161 369H253Q280 369 309 376T361 400T400 443T415 508Q415 540 403 565T371 610T323 639T263 649Q227 649 200 640T154 617T122 592T106 575Q103 571 99 570T89 573L74 585Q69 588 69 593T73 602Q94 628 123 647Q148 664 183 677T263 691Q306 691 342 678T405
642T447 586T462 513Q462 484 452 458T427 411T391 375T349 352V350Q373 343 396 327T438 289T468 240T480 183Q480 142 464 107T419 45T348 5T254 -10Q208 -10 174 0T115 25T76 54T52 79Z" />
<glyph unicode="4" glyph-name="four" horiz-adv-x="583" d="M411 196V612L71 196H411ZM32 156Q15 156 15 171V188L424 692H442Q453 692 453 681Q453 559 453 438T454 195H530Q543 195 543 183V170Q543 157 530 157H454V13Q454 0 441 0Q432 0 421 0T409 13V156H32Z" />
<glyph unicode="5" glyph-name="five" horiz-adv-x="545" d="M71 74Q65 82 65 86T70 96Q74 99 77 102T84 109Q94 117 101 107Q107 99 120 86T153 61T201 40T266 31Q308 31 342 46T402 88T440 149T454 220Q454 295 407 340T266 386H100Q91 386 86 392T81 407V668Q81
681 94 681H408Q421 681 421 668V652Q421 639 408 639H123V428H266Q381 428 440 374T500 220Q500 173 483 131T434 58T360 8T265 -10Q223 -10 191 -1T136 21T96 48T71 74Z" />
<glyph unicode="6" glyph-name="six" horiz-adv-x="554" d="M101 268Q101 222 113 179T148 103T208 50T292 30Q329 30 361 45T418 85T457 145T471 218Q471 258 457 291T418 348T362 385T294 398Q249 398 214 383T155 350T117 316T103 298Q102 290 102 283T101
268ZM58 275Q58 343 76 399T123 499T188 578T261 638T330 679T385 704Q397 707 400 697L407 682Q412 669 396 663Q374 656 332 633T244 572T161 480T111 358Q117 366 132 379T172 406T228 429T298 439Q341 439 380 424T449 380T497 311T515 220Q515 172 497 131T449
58T378 8T292 -10Q234 -10 190 12T117 72T73 163T58 275Z" />
<glyph unicode="7" glyph-name="seven" horiz-adv-x="473" d="M402 639H33Q25 639 23 643T20 653V668Q20 681 33 681H447Q454 681 457 678T461 669V664L167 16Q162 6 159 3T148 0H124Q116 0 116 5T117 16L402 639Z" />
<glyph unicode="8" glyph-name="eight" horiz-adv-x="574" d="M109 175Q109 139 123 112T161 66T217 38T285 28Q323 28 356 37T413 64T451 110T465 175Q465 203 453 228T417 274T361 307T287 323Q203 316 156 275T109 175ZM287 372Q362 377 405 413T448 507Q448
536 438 562T406 608T355 639T284 651Q245 651 216 640T166 608T136 562T126 507Q126 449 169 413T287 372ZM63 179Q63 212 75 239T108 289T156 326T213 348V350Q187 358 163 372T121 406T92 452T81 508Q81 545 94 578T133 635T197 674T285 689Q335 689 374 675T439
636T479 578T493 508Q493 478 482 453T453 407T411 372T361 350V348Q391 341 418 327T465 291T498 241T511 179Q511 134 495 99T448 40T377 3T285 -10Q236 -10 195 3T125 40T80 99T63 179Z" />
<glyph unicode="9" glyph-name="nine" horiz-adv-x="553" d="M259 288Q304 288 339 303T399 336T436 371T450 388Q451 396 451 403T452 418Q452 464 441 507T405 583T346 636T262 656Q225 656 193 641T136 601T97 541T83 468Q83 428 97 395T135 338T191 301T259
288ZM147 4Q142 18 158 23Q172 28 196 40T250 70T309 114T367 172T414 243T442 328Q436 320 421 307T381 280T326 257T256 247Q213 247 174 262T105 306T57 375T39 466Q39 514 57 555T105 628T176 678T262 696Q320 696 364 674T437 614T481 523T496 411Q496 343
478 287T431 187T366 108T293 48T223 7T168 -18Q158 -21 153 -11L147 4Z" />
<glyph unicode=":" glyph-name="colon" horiz-adv-x="263" d="M91 30Q91 47 103 58T132 70Q149 70 160 59T172 30Q172 13 161 2T132 -10Q115 -10 103 1T91 30ZM132 329Q115 329 103 341T91 369Q91 386 103 398T132 410Q149 410 160 398T172 369Q172 353 161 341T132 329Z" />
<glyph unicode=";" glyph-name="semicolon" horiz-adv-x="267" d="M91 30Q91 48 102 58T133 69Q155 69 172 47T189 -25Q189 -55 181 -79T160 -120T136 -149T117 -164Q105 -171 100 -164L92 -154Q85 -146 96 -138Q98 -137 106 -131T123 -112T141 -83T152 -43Q153
-21 147 -5Q139 -10 131 -10Q111 -10 101 2T91 30ZM131 329Q114 329 103 341T91 369Q91 386 102 398T131 410Q148 410 159 398T171 369Q171 353 160 341T131 329Z" />
<glyph unicode="&lt;" glyph-name="less" horiz-adv-x="433" d="M36 215Q26 221 26 231V232Q26 240 36 246L389 470Q394 474 398 471T403 460V437Q403 434 402 430T395 422L91 231L395 46Q400 43 401 39T403 31V8Q403 0 399 -3T389 -2L36 215Z" />
<glyph unicode="=" glyph-name="equal" horiz-adv-x="561" d="M123 158Q115 158 113 162T110 171V188Q110 193 112 197T123 201H438Q451 201 451 188V171Q451 158 438 158H123ZM123 366Q115 366 113 370T110 379V396Q110 401 112 405T123 409H438Q451 409 451
396V379Q451 366 438 366H123Z" />
<glyph unicode="&gt;" glyph-name="greater" horiz-adv-x="433" d="M30 31Q30 34 31 38T38 46L342 231L38 422Q33 425 32 429T30 437V460Q30 468 34 471T44 470L397 246Q407 240 407 232V231Q407 221 397 215L44 -2Q39 -6 35 -3T30 8V31Z" />
<glyph unicode="?" glyph-name="question" horiz-adv-x="469" d="M172 30Q172 47 183 58T212 70Q229 70 241 59T253 30Q253 13 241 2T212 -10Q195 -10 184 1T172 30ZM203 273Q196 273 194 277T191 287V345Q191 369 203 388T234 423T274 454T314 485T345 521T358
566Q358 586 350 604T326 637T288 661T235 670Q201 670 176 661T133 639T105 616T91 600Q88 597 85 596T74 599L64 606Q56 611 57 615T61 625Q78 650 104 668Q126 684 159 697T238 710Q314 710 358 671T403 569Q403 536 391 512T360 468T319 434T279 405T248 377T235
344V287Q235 273 222 273H203Z" />
<glyph unicode="@" glyph-name="at" horiz-adv-x="990" d="M328 202Q328 164 339 133T369 79T415 44T473 32Q506 32 529 43T568 70T592 101T602 124V313Q601 315 594 324T571 343T534 361T483 370Q451 370 423 358T374 324T341 271T328 202ZM48 224Q48 331 80
420T173 573T318 674T508 710Q608 710 686 678T819 590T901 457T930 289Q930 240 921 187T888 90T825 18T725 -10Q675 -10 648 13T613 69Q607 59 595 46T565 20T524 -1T470 -10Q430 -10 396 5T337 49T299 117T285 202Q285 249 300 287T343 353T405 395T481 410Q512
410 534 403T573 388Q591 378 604 366L607 388Q608 394 610 397T621 400H631Q644 400 644 387V136Q644 79 665 53T727 27Q769 27 799 48T850 106T880 189T890 289Q890 371 865 441T792 563T672 644T507 673Q411 673 334 641T202 550T118 408T88 224Q88 149 108
86T166 -30T254 -122T367 -188Q378 -193 373 -204L366 -220Q362 -230 352 -226Q286 -198 230 -155T134 -54T71 73T48 224Z" />
<glyph unicode="A" glyph-name="A" horiz-adv-x="653" d="M500 232L329 635H327L153 232H500ZM13 0Q2 0 6 12L314 708Q318 715 326 715H329Q339 715 342 708L647 12Q649 7 648 4T638 0H612Q607 0 604 3T598 9L517 193H135L55 9Q53 6 50 3T41 0H13Z" />
<glyph unicode="B" glyph-name="B" horiz-adv-x="623" d="M345 42Q381 42 411 53T464 84T498 131T510 191Q510 224 497 250T460 295T406 323T339 333H152V42H345ZM339 376Q410 376 449 415T488 517Q488 583 446 619T332 656H153V376H339ZM106 687Q106 700 119
700H332Q378 700 416 687T481 651T524 594T539 519Q539 459 508 418T429 357Q456 350 480 337T522 303T550 254T561 190Q561 148 545 113T500 53T431 14T341 0H119Q106 0 106 13V687Z" />
<glyph unicode="C" glyph-name="C" horiz-adv-x="718" d="M56 349Q56 424 84 490T162 604T277 681T418 710Q495 710 553 686T661 617Q665 613 665 608T662 599L646 582Q638 574 629 583Q586 621 533 643T418 665Q352 665 295 640T196 572T130 472T106 349Q106
285 130 228T196 128T295 60T418 35Q483 35 533 58T629 119Q638 126 645 121L662 104Q671 96 662 87Q611 37 548 14T418 -10Q343 -10 277 18T162 94T85 208T56 349Z" />
<glyph unicode="D" glyph-name="D" horiz-adv-x="738" d="M322 43Q388 43 444 66T542 131T608 229T632 351Q632 416 608 472T543 569T445 633T322 657H153V43H322ZM106 687Q106 692 109 696T118 700H330Q403 700 467 673T579 598T654 487T682 351Q682 278 655
214T579 103T467 28T330 0H118Q113 0 110 4T106 13V687Z" />
<glyph unicode="E" glyph-name="E" horiz-adv-x="598" d="M106 687Q106 700 119 700H520Q533 700 533 687V670Q533 657 520 657H154V381H471Q484 381 484 368V351Q484 338 471 338H154V42H520Q533 42 533 29V13Q533 0 520 0H119Q106 0 106 13V687Z" />
<glyph unicode="F" glyph-name="F" horiz-adv-x="573" d="M106 687Q106 700 119 700H520Q533 700 533 687V670Q533 657 520 657H154V353H471Q484 353 484 340Q484 332 483 322T471 311H154L153 13Q153 0 137 0H119Q106 0 106 13V687Z" />
<glyph unicode="G" glyph-name="G" horiz-adv-x="743" d="M56 349Q56 424 84 490T162 604T277 681T418 710Q494 710 552 686T660 617Q664 613 664 608T661 599Q657 594 653 590T645 582Q637 573 628 582Q586 621 533 643T417 666Q352 666 295 641T196 574T130
474T106 351Q106 286 130 229T196 129T295 61T417 36Q463 36 499 43T563 60T605 79T625 91V279H454Q446 279 444 282T441 292V312Q441 318 443 321T454 324H659Q664 324 668 321T672 312V80Q672 69 668 64T658 54Q651 50 631 39T580 18T508 -1T418 -10Q343 -10
277 18T162 94T85 208T56 349Z" />
<glyph unicode="H" glyph-name="H" horiz-adv-x="755" d="M106 687Q106 700 119 700H140Q153 700 153 687V380H602V687Q602 700 615 700H636Q649 700 649 687V13Q649 0 636 0H615Q602 0 602 13V338H153V13Q153 0 140 0H119Q106 0 106 13V687Z" />
<glyph unicode="I" glyph-name="I" horiz-adv-x="260" d="M106 687Q106 700 119 700H141Q154 700 154 687V13Q154 7 150 4T140 0H119Q106 0 106 13V687Z" />
<glyph unicode="J" glyph-name="J" horiz-adv-x="391" d="M-25 65Q-31 75 -24 82L-11 94Q-3 103 6 94Q14 86 25 75T51 55T85 39T129 32Q193 32 234 76T275 210V687Q275 700 289 700H309Q322 700 322 687V211Q322 105 270 48T128 -10Q95 -10 70 -1T25 20T-6 44T-25 65Z" />
<glyph unicode="K" glyph-name="K" horiz-adv-x="590" d="M106 685Q106 700 121 700H139Q154 700 154 685V376L494 693Q500 698 503 699T514 700H542Q550 700 551 694T548 683L200 360L559 17Q564 13 562 7T550 0H518Q511 0 507 2T496 10L154 342V13Q154 5 150
3T139 0H119Q106 0 106 13V685Z" />
<glyph unicode="L" glyph-name="L" horiz-adv-x="489" d="M106 687Q106 700 119 700H141Q146 700 149 696T153 687V42H472Q481 42 483 38T485 29V11Q485 0 472 0H119Q106 0 106 13V687Z" />
<glyph unicode="M" glyph-name="M" horiz-adv-x="859" d="M192 703Q194 710 201 710H212Q219 710 222 703L428 89H430L637 703Q640 710 647 710H658Q665 710 667 703L809 13Q812 0 798 0H774Q764 0 762 11L649 597H647L445 -2Q442 -10 431 -10H427Q423 -10 420
-9T414 -2L212 597H210L97 11Q95 0 85 0H61Q47 0 50 13L192 703Z" />
<glyph unicode="N" glyph-name="N" horiz-adv-x="771" d="M106 697Q106 703 110 706T121 710H138L618 85H619V687Q619 700 632 700H652Q665 700 665 687V3Q665 -4 660 -7T649 -10H636Q636 -10 633 -7T616 14T572 70T489 178T353 356T152 621H151V13Q151 0 138
0H119Q106 0 106 13V697Z" />
<glyph unicode="O" glyph-name="O" horiz-adv-x="833" d="M100 349Q100 283 125 226T192 126T292 59T416 34Q482 34 539 58T640 126T708 226T733 349Q733 415 708 472T640 573T540 641T416 666Q350 666 293 641T193 573T125 473T100 349ZM56 349Q56 424 84 490T161
604T275 681T416 710Q491 710 557 682T672 605T749 490T777 349Q777 274 749 209T672 95T557 18T416 -10Q341 -10 276 18T161 94T84 208T56 349Z" />
<glyph unicode="P" glyph-name="P" horiz-adv-x="594" d="M332 295Q369 295 402 309T459 348T498 406T513 477Q513 514 499 546T459 602T401 639T331 653H153V295H332ZM106 687Q106 700 119 700H334Q381 700 422 683T493 635T542 563T560 476Q560 429 542 388T494
316T422 267T335 249H153V13Q153 0 137 0H119Q106 0 106 13V687Z" />
<glyph unicode="Q" glyph-name="Q" horiz-adv-x="834" d="M100 349Q100 283 125 226T192 126T292 59T416 34Q482 34 539 58T640 126T708 226T733 349Q733 415 708 472T640 573T540 641T416 666Q350 666 293 641T193 573T125 473T100 349ZM56 349Q56 424 84 490T161
604T275 681T416 710Q491 710 557 682T672 605T749 490T777 349Q777 292 761 240T715 145T644 69T552 16L671 -178Q673 -182 672 -187T664 -193H631Q624 -193 618 -183L507 1Q463 -10 416 -10Q341 -10 276 18T161 94T84 208T56 349Z" />
<glyph unicode="R" glyph-name="R" horiz-adv-x="650" d="M365 312Q401 312 433 325T489 362T528 417T542 486Q542 522 528 552T490 605T433 641T364 654H154V312H365ZM106 687Q106 700 119 700H367Q413 700 453 684T524 639T572 571T590 486Q590 448 578 415T543
354T491 307T425 277L571 18Q575 12 574 6T564 0H533Q524 0 519 9L374 271Q364 270 356 270T337 270H153V13Q153 0 137 0H119Q106 0 106 13V687Z" />
<glyph unicode="S" glyph-name="S" horiz-adv-x="543" d="M67 72Q62 76 60 80T64 93L73 105Q85 118 95 109Q99 106 114 94T153 68T210 43T280 32Q314 32 344 42T398 71T434 114T448 166Q448 199 435 224T396 269T335 305T254 336Q211 351 175 367T114 406T75 459T61
533Q61 561 73 592T110 649T177 693T277 710Q315 710 346 703T400 685Q427 674 449 659Q452 657 455 652T453 638Q449 632 445 625Q436 612 423 620Q422 621 410 628T377 644T331 660T276 667Q230 667 198 654T146 622T116 579T107 534Q107 502 118 479T152 437T204
405T273 379Q324 361 365 343T436 300T481 244T497 168Q497 131 479 99T431 42T362 4T279 -10Q234 -10 198 1T134 26T89 54T67 72Z" />
<glyph unicode="T" glyph-name="T" horiz-adv-x="472" d="M212 657H21Q8 657 8 672V687Q8 700 21 700H451Q464 700 464 687V670Q464 657 451 657H259V13Q259 0 243 0H225Q212 0 212 13V657Z" />
<glyph unicode="U" glyph-name="U" horiz-adv-x="720" d="M98 687Q98 700 111 700H132Q145 700 145 687V260Q145 212 159 171T202 100T269 53T359 36Q409 36 449 52T517 99T560 170T575 259V687Q575 700 589 700H609Q622 700 622 687V255Q622 198 604 149T551
65T468 10T359 -10Q300 -10 252 10T169 65T117 149T98 255V687Z" />
<glyph unicode="V" glyph-name="V" horiz-adv-x="651" d="M6 687Q-1 700 14 700H41Q50 700 52 693L322 72H324L597 693Q599 700 608 700H634Q650 700 643 686L336 -1Q332 -10 324 -10H319Q314 -10 312 -7T308 -1L6 687Z" />
<glyph unicode="W" glyph-name="W" horiz-adv-x="896" d="M39 687Q36 700 50 700H74Q84 700 86 689L254 103H256L432 701Q434 706 438 708T447 710H449Q454 710 458 708T464 701L641 103H643L810 689Q812 700 822 700H846Q860 700 857 687L659 -3Q657 -10 650
-10H639Q632 -10 629 -3L449 606H447L267 -3Q264 -10 257 -10H246Q239 -10 237 -3L39 687Z" />
<glyph unicode="X" glyph-name="X" horiz-adv-x="565" d="M252 358L47 685Q43 691 45 695T55 700H87Q96 700 100 694L281 400H282L465 694Q470 700 478 700H510Q518 700 520 696T518 685L312 358L531 15Q535 9 533 5T523 0H491Q483 0 478 6L282 315H281L88 6Q84
0 75 0H43Q35 0 33 4T35 15L252 358Z" />
<glyph unicode="Y" glyph-name="Y" horiz-adv-x="560" d="M253 340L-2 685Q-7 691 -5 695T6 700H36Q45 700 49 694L277 383L509 694Q514 700 522 700H552Q560 700 562 696T560 685L300 341V13Q300 0 287 0Q277 0 265 0T253 13V340Z" />
<glyph unicode="Z" glyph-name="Z" horiz-adv-x="533" d="M30 30L436 654V656H74Q61 656 61 671V687Q61 700 74 700H486Q499 700 499 687V671L92 45V44H465Q478 44 478 31V13Q478 0 465 0H44Q30 0 30 12V30Z" />
<glyph unicode="[" glyph-name="bracketleft" horiz-adv-x="330" d="M291 -260Q304 -260 304 -273V-288Q304 -301 291 -301H96Q83 -301 83 -288V687Q83 700 96 700H291Q304 700 304 687V672Q304 659 291 659H126V-260H291Z" />
<glyph unicode="\" glyph-name="backslash" horiz-adv-x="327" d="M26 686Q24 692 27 696T38 700H52Q62 700 65 692L286 14Q288 7 285 4T275 0H260Q250 0 247 9L26 686Z" />
<glyph unicode="]" glyph-name="bracketright" horiz-adv-x="329" d="M203 -260V659H39Q26 659 26 672V687Q26 700 39 700H233Q246 700 246 687V-288Q246 -301 233 -301H39Q26 -301 26 -288V-273Q26 -260 39 -260H203Z" />
<glyph unicode="^" glyph-name="asciicircum" horiz-adv-x="524" d="M46 400Q38 400 37 405T40 416L251 707Q256 714 262 714H265Q271 714 276 707L486 416Q491 410 490 405T480 400H457Q447 400 441 408L263 655L85 408Q79 400 69 400H46Z" />
<glyph unicode="_" glyph-name="underscore" horiz-adv-x="393" d="M26 -23Q26 -10 39 -10H354Q367 -10 367 -23V-33Q367 -45 354 -45H39Q26 -45 26 -33V-23Z" />
<glyph unicode="`" glyph-name="grave" horiz-adv-x="302" d="M76 638Q67 643 72 653L82 673Q85 678 90 678T99 676L263 586Q272 581 269 572L264 562Q260 554 248 559L76 638Z" />
<glyph unicode="a" glyph-name="a" horiz-adv-x="427" d="M85 124Q85 80 111 55T180 29Q203 29 224 35T262 50T293 71T313 91V201Q303 206 276 214T212 222Q155 222 120 196T85 124ZM44 123Q44 181 88 219T212 258Q229 258 245 256T275 251T299 245T313 240Q313
273 311 298T299 339T273 364T225 372Q200 372 180 368T144 360T118 351T105 345Q94 341 90 353L85 365Q81 376 91 380Q92 381 102 385T129 395T172 405T228 410Q274 410 299 397T337 361T352 306T355 235V13Q355 0 342 0H330Q321 0 318 11L314 47Q294 29 259 10T175
-10Q119 -10 82 25T44 123Z" />
<glyph unicode="b" glyph-name="b" horiz-adv-x="486" d="M120 101Q121 100 129 89T154 64T194 41T251 30Q283 30 309 43T355 80T385 134T396 200Q396 236 385 266T352 319T302 354T238 367Q211 367 190 361T152 346Q134 336 120 325V101ZM76 687Q76 700 89 700H106Q119
700 119 687V370Q134 381 153 390Q170 398 192 404T243 410Q285 410 321 394T383 350T424 284T439 201Q439 157 425 119T386 52T328 7T255 -10Q226 -10 203 -3T161 14T132 34T116 49L113 13Q112 0 99 0H89Q76 0 76 13V687Z" />
<glyph unicode="c" glyph-name="c" horiz-adv-x="459" d="M46 200Q46 245 63 283T108 350T175 394T256 410Q285 410 309 404T352 387T384 367T404 347Q412 337 402 329L392 319Q387 314 382 315T371 321Q367 325 358 333T334 348T300 361T256 367Q222 367 192
355T140 320T104 267T91 201Q91 165 104 134T139 81T192 45T255 32Q283 32 304 39T341 57T366 77T380 91Q390 102 399 93L410 83Q418 75 413 67Q407 58 394 45T360 20T314 -1T256 -10Q214 -10 176 6T109 50T63 116T46 200Z" />
<glyph unicode="d" glyph-name="d" horiz-adv-x="486" d="M91 200Q91 165 101 134T131 80T177 44T235 30Q268 30 292 40T332 64T357 88T367 101V325Q353 336 335 346Q319 354 298 360T248 367Q214 367 185 355T135 320T103 267T91 200ZM47 200Q47 244 62 282T103
349T165 394T244 410Q273 410 295 404T334 390Q352 381 367 370V687Q367 700 380 700H398Q403 700 406 696T410 687V13Q410 0 397 0H387Q374 0 373 13L370 48Q366 43 355 34T326 14T285 -3T232 -10Q193 -10 159 6T101 51T62 118T47 200Z" />
<glyph unicode="e" glyph-name="e" horiz-adv-x="467" d="M381 224Q381 253 373 279T347 326T304 358T244 370Q211 370 184 359T137 328T106 282T92 224H381ZM47 201Q47 244 60 282T99 348T161 393T244 410Q283 410 316 397T374 359T411 301T425 227Q425 215 423
202T410 188H91Q93 156 104 127T136 77T185 43T247 30Q287 30 317 42T365 67Q372 72 375 72T383 67L393 53Q398 46 389 37Q382 30 367 22T333 6T290 -5T244 -10Q198 -10 162 6T100 51T61 118T47 201Z" />
<glyph unicode="f" glyph-name="f" horiz-adv-x="313" d="M101 361H41Q34 361 31 365T28 374V387Q28 400 41 400H101V537Q101 581 112 613T144 667T191 699T252 710Q271 710 289 706T321 696T347 682T364 667Q371 658 366 651L356 637Q349 626 339 636Q328 647
304 658T252 670Q204 670 175 638T145 537V400H293Q306 400 306 388V373Q306 361 293 361H145V13Q145 0 132 0H114Q101 0 101 13V361Z" />
<glyph unicode="g" glyph-name="g" horiz-adv-x="462" d="M94 -157Q94 -178 104 -198T133 -233T180 -259T244 -269Q278 -269 307 -260T357 -234T391 -196T403 -148Q403 -131 398 -115T380 -87T349 -68T301 -60H175Q171 -60 158 -66T131 -83T106 -113T94 -157ZM238
114Q266 114 289 124T328 151T352 192T361 242Q361 274 351 297T324 337T285 362T238 370Q209 370 186 360T146 333T120 293T111 242Q111 216 119 193T143 152T183 124T238 114ZM35 34Q35 59 44 78T64 110T86 131T101 141Q93 152 82 178T70 241Q70 277 82 308T117
361T172 397T245 410H409Q422 410 422 397V386Q422 376 413 374L341 369Q348 365 358 357T379 333T396 295T403 241Q403 208 392 178T359 125T306 89T237 75Q192 75 165 87T128 111Q125 110 117 105T100 92T84 70T77 39Q77 21 84 10T102 -7T127 -16T156 -19H301Q333
-19 360 -26T407 -49T438 -89T449 -147Q449 -179 435 -208T393 -260T329 -296T245 -310Q194 -310 157 -297T97 -262T62 -214T50 -162Q50 -140 57 -123T73 -92T94 -71T113 -57Q106 -56 93 -50T67 -33T45 -5T35 34Z" />
<glyph unicode="h" glyph-name="h" horiz-adv-x="495" d="M76 687Q76 700 90 700H106Q119 700 119 687V346Q124 351 136 361T166 383T209 402T264 410Q342 410 383 364T425 227V13Q425 0 412 0H394Q381 0 381 13V227Q381 296 350 331T262 367Q231 367 206 357T161
334T132 310T119 297V13Q119 0 106 0H87Q76 0 76 13V687Z" />
<glyph unicode="i" glyph-name="i" horiz-adv-x="196" d="M76 387Q76 400 89 400H107Q120 400 120 387V13Q120 0 107 0H87Q76 0 76 13V387ZM98 596Q84 596 74 605T64 629Q64 643 74 653T98 664Q112 664 122 654T132 629Q132 615 122 606T98 596Z" />
<glyph unicode="j" glyph-name="j" horiz-adv-x="195" d="M76 387Q76 400 89 400H106Q119 400 119 387V-137Q119 -226 79 -268T-27 -310Q-66 -310 -96 -295T-139 -267Q-146 -260 -141 -253L-131 -237Q-124 -227 -114 -237Q-101 -247 -79 -258T-27 -270Q21 -270
48 -239T76 -137V387ZM97 596Q83 596 73 605T63 629Q63 643 73 653T97 664Q111 664 121 654T131 629Q131 615 121 606T97 596Z" />
<glyph unicode="k" glyph-name="k" horiz-adv-x="428" d="M76 687Q76 700 89 700H106Q119 700 119 687V239L332 394Q340 400 348 400H377Q385 400 385 393T380 382L165 224L406 17Q412 12 410 6T401 0H370Q365 0 361 1T350 8L119 207V13Q119 0 106 0H87Q76 0 76 13V687Z" />
<glyph unicode="l" glyph-name="l" horiz-adv-x="196" d="M76 687Q76 700 89 700H107Q120 700 120 687V13Q120 0 107 0H87Q76 0 76 13V687Z" />
<glyph unicode="m" glyph-name="m" horiz-adv-x="763" d="M76 387Q76 400 89 400H101Q110 400 112 390L117 347Q121 353 132 363T160 384T201 402T255 410Q301 410 334 391T386 337Q391 343 403 355T434 379T479 401T536 410Q618 410 655 361T692 227V13Q692 0
679 0H659Q648 0 648 13V227Q648 367 533 367Q505 367 483 359T444 339T417 317T401 299Q410 268 410 227V13Q410 0 397 0H378Q366 0 366 13V227Q366 296 337 331T250 367Q220 367 197 358T157 336T131 312T120 298V13Q120 0 107 0H87Q76 0 76 13V387Z" />
<glyph unicode="n" glyph-name="n" horiz-adv-x="495" d="M76 387Q76 400 90 400H100Q110 400 112 390L116 347Q121 352 133 362T165 383T209 402T264 410Q348 410 386 361T425 227V13Q425 0 412 0H394Q381 0 381 13V227Q381 296 350 331T262 367Q231 367 206
357T162 335T132 311T119 298V13Q119 0 106 0H87Q76 0 76 13V387Z" />
<glyph unicode="o" glyph-name="o" horiz-adv-x="494" d="M89 201Q89 165 101 134T134 80T185 44T247 31Q280 31 308 44T358 80T392 134T404 201Q404 236 392 266T359 319T309 355T247 368Q214 368 185 355T135 319T101 266T89 201ZM46 201Q46 244 61 282T104
348T168 393T247 410Q289 410 325 394T389 349T432 282T448 201Q448 157 433 119T390 52T326 7T247 -10Q205 -10 168 6T104 51T62 118T46 201Z" />
<glyph unicode="p" glyph-name="p" horiz-adv-x="487" d="M120 79Q121 78 129 70T151 54T187 39T233 32Q269 32 299 45T350 81T384 134T396 201Q396 236 385 266T354 320T306 356T244 369Q215 369 193 361T154 343T130 324T120 313V79ZM119 -287Q119 -300 106
-300H89Q76 -300 76 -287V387Q76 393 80 396T90 400H101Q112 400 113 390L116 362Q121 366 131 374T158 390T197 404T247 410Q289 410 324 394T385 349T425 282T440 200Q440 156 425 118T383 51T319 6T238 -10Q213 -10 193 -5T158 7T133 20T119 31V-287Z" />
<glyph unicode="q" glyph-name="q" horiz-adv-x="486" d="M91 201Q91 165 102 135T135 81T187 45T253 32Q279 32 299 38T334 53T357 68T367 78V313Q366 315 358 323T333 342T295 361T243 369Q209 369 181 356T133 320T102 267T91 201ZM47 200Q47 244 61 282T101
348T162 393T239 410Q266 410 288 404T327 390T355 374T370 362L374 389Q375 400 387 400H398Q403 400 406 396T410 387V-287Q410 -292 407 -296T398 -300H380Q367 -300 367 -287V32Q363 28 354 21T329 7T294 -5T249 -10Q204 -10 167 6T104 50T62 117T47 200Z"
/>
<glyph unicode="r" glyph-name="r" horiz-adv-x="324" d="M76 387Q76 400 89 400H101Q111 400 113 389L117 348Q121 353 130 363T155 384T192 402T242 410Q266 410 282 405T304 398Q320 393 315 380L307 360Q303 350 291 355Q287 357 273 362T239 367Q210 367
188 357T152 335T129 311T120 298V13Q120 0 107 0H87Q76 0 76 13V387Z" />
<glyph unicode="s" glyph-name="s" horiz-adv-x="370" d="M57 35Q54 37 53 41T53 49L63 65Q65 69 70 70T81 66Q85 63 94 57T117 44T149 32T188 27Q231 27 257 48T284 98Q284 115 276 128T253 151T218 170T172 188Q145 197 123 208T84 233T58 265T49 306Q49 323
56 341T80 374T121 400T180 410Q220 410 249 399T293 378Q304 371 297 359L291 348Q284 336 272 343Q269 345 260 350T239 359T211 367T180 371Q156 371 140 365T114 350T99 329T94 307Q94 277 119 260T189 227Q217 217 242 206T287 181T318 148T330 101Q330 79
319 59T289 23T244 -1T188 -10Q137 -10 106 6T57 35Z" />
<glyph unicode="t" glyph-name="t" horiz-adv-x="329" d="M93 361H46Q38 361 36 364T34 374V390Q34 400 46 400H93V509Q93 522 106 522L123 523Q136 523 136 510V400H275Q288 400 288 387V374Q288 361 275 361H136V106Q136 71 144 52T188 33Q201 33 215 36T241
43T264 52T279 60Q286 64 289 62T295 56L302 44Q308 33 299 27Q288 18 257 4T183 -10Q152 -10 134 -2T107 22T96 58T93 103V361Z" />
<glyph unicode="u" glyph-name="u" horiz-adv-x="485" d="M70 387Q70 400 83 400H101Q114 400 114 387V172Q114 102 145 67T233 32Q264 32 288 42T329 65T355 89T365 102V387Q365 400 378 400H396Q409 400 409 387V13Q409 0 396 0H384Q378 0 376 3T372 12L368
51Q364 46 353 36T325 15T284 -2T230 -10Q146 -10 108 38T70 172V387Z" />
<glyph unicode="v" glyph-name="v" horiz-adv-x="408" d="M17 385Q14 391 15 395T23 400H45Q54 400 58 391L203 61H204L350 391Q354 400 363 400H385Q392 400 393 396T391 385L217 -1Q213 -10 205 -10H201Q193 -10 189 -1L17 385Z" />
<glyph unicode="w" glyph-name="w" horiz-adv-x="606" d="M34 384Q29 400 40 400H62Q72 400 75 391L169 76H170L289 401Q292 410 301 410H305Q314 410 317 401L436 76H437L531 391Q534 400 544 400H566Q577 400 572 384L452 -1Q449 -10 440 -10H436Q427 -10 424
-1L303 336H302L182 -1Q179 -10 170 -10H166Q157 -10 154 -1L34 384Z" />
<glyph unicode="x" glyph-name="x" horiz-adv-x="418" d="M182 205L43 386Q38 391 40 395T49 400H75Q84 400 90 391L207 236H208L326 391Q332 400 341 400H367Q373 400 375 396T373 386L235 206L380 14Q385 9 383 5T374 0H348Q339 0 333 9L208 176H207L82 9Q76
0 67 0H41Q35 0 33 4T35 14L182 205Z" />
<glyph unicode="y" glyph-name="y" horiz-adv-x="443" d="M15 384Q12 390 13 395T21 400H43Q52 400 56 391L227 53H229L385 391Q390 400 398 400H420Q427 400 428 395T426 384L112 -292Q109 -300 99 -300H76Q63 -300 69 -286L204 4L15 384Z" />
<glyph unicode="z" glyph-name="z" horiz-adv-x="371" d="M34 22L269 357V360H65Q53 360 53 373V387Q53 400 65 400H324Q332 400 336 394T335 381L101 43V40H308Q321 40 321 27V13Q321 0 308 0H46Q34 0 34 11V22Z" />
<glyph unicode="{" glyph-name="braceleft" horiz-adv-x="365" d="M108 96Q108 120 100 136T80 162T56 177T35 185Q30 187 28 188T26 194V210Q26 215 28 216T35 219Q43 222 55 227T79 242T99 268T108 308V468Q108 537 127 583T177 658T247 698T325 710Q330 710
334 707T339 698V686Q339 676 329 674Q249 668 200 619T151 467V308Q151 282 142 263T120 230T97 211T83 202V201Q85 200 96 194T119 175T141 143T151 96V-67Q151 -170 200 -219T329 -274Q339 -276 339 -286V-298Q339 -303 335 -306T325 -310Q286 -310 247 -298T178
-258T128 -184T108 -68V96Z" />
<glyph unicode="|" glyph-name="bar" horiz-adv-x="195" d="M82 746Q82 759 95 759H101Q113 759 113 746V-288Q113 -300 100 -300H95Q82 -300 82 -288V746Z" />
<glyph unicode="}" glyph-name="braceright" horiz-adv-x="365" d="M214 96Q214 122 223 141T245 173T268 193T282 201V202Q280 203 269 209T246 229T224 261T214 308V467Q214 570 165 619T36 674Q26 676 26 686V698Q26 703 30 706T40 710Q79 710 118 698T187
658T237 584T257 468V308Q257 284 265 268T285 242T309 227T330 219Q335 217 337 216T339 210V194Q339 189 337 188T330 185Q322 182 310 177T286 162T266 136T257 96V-68Q257 -137 238 -183T188 -258T118 -298T40 -310Q35 -310 31 -307T26 -298V-286Q26 -276 36
-274Q116 -268 165 -219T214 -67V96Z" />
<glyph unicode="~" glyph-name="asciitilde" horiz-adv-x="574" d="M68 249Q60 256 66 265Q81 292 101 313Q118 331 142 345T199 360Q234 360 260 343T304 306Q317 292 337 277T383 261Q406 261 424 271T454 295T474 321T484 338Q492 349 501 341L514 332Q524
325 517 316Q502 290 482 269Q465 251 440 236T383 221Q348 221 324 239T281 274Q267 288 247 303T199 319Q176 319 159 309T129 285T109 259T99 242Q92 232 81 239L68 249Z" />
</font>
</defs>
</svg>
